<svg fill="none" height="79" viewBox="0 0 771 79" width="771" xmlns="http://www.w3.org/2000/svg" xmlns:xlink="http://www.w3.org/1999/xlink"><mask id="a" height="43" maskUnits="userSpaceOnUse" width="349" x="29" y="18"><path d="m378 18.5h-349v42h349z" fill="#fff"/></mask><g mask="url(#a)"><g fill="#fff"><path d="m131.907 35.3h-25.441v-8.4h32.027v-8.4h-32.085c-2.229 0-4.366.8789-5.941 2.4432-1.5759 1.5644-2.4611 3.6861-2.4611 5.8985v8.5166c0 2.2124.8852 4.3341 2.4611 5.8985 1.575 1.5643 3.712 2.4432 5.941 2.4432h25.44v8.4h-33.2369v8.4h33.2959c2.228 0 4.365-.8789 5.941-2.4432 1.576-1.5644 2.461-3.6861 2.461-5.8985v-8.5166c0-2.2124-.885-4.3341-2.461-5.8985-1.576-1.5643-3.713-2.4432-5.941-2.4432z"/><path d="m181.172 18.5h-25.534c-1.103 0-2.196.2158-3.215.6351s-1.945 1.0338-2.724 1.8085c-.78.7746-1.398 1.6943-1.82 2.7063-.421 1.012-.638 2.0966-.637 3.1918v25.3166c-.001 1.0952.216 2.1798.637 3.1918.422 1.012 1.04 1.9317 1.82 2.7063.779.7747 1.705 1.3892 2.724 1.8085s2.112.6351 3.215.6351h25.534c2.229 0 4.366-.8789 5.941-2.4432 1.576-1.5644 2.461-3.6861 2.461-5.8985v-25.3166c0-2.2124-.885-4.3341-2.461-5.8985-1.575-1.5643-3.712-2.4432-5.941-2.4432zm-.059 33.6h-25.381v-25.2h25.381z"/><path d="m270.538 18.5h-24.9c-2.229 0-4.366.8788-5.941 2.4432-1.576 1.5644-2.461 3.6861-2.461 5.8985v33.6583h8.46v-13.8017h24.783v13.8017h8.461v-33.6583c0-1.0957-.216-2.1808-.638-3.1932s-1.041-1.9322-1.822-2.707c-.78-.7747-1.706-1.3892-2.726-1.8081s-2.113-.6342-3.216-.6334zm-.059 19.7983h-24.783v-11.3983h24.783z"/><path d="m369.598 18.5h-24.894c-1.105-.0023-2.199.2118-3.221.6299-1.021.4182-1.949 1.0323-2.731 1.8071-.782.7749-1.403 1.6952-1.826 2.7084s-.641 2.0994-.641 3.1963v33.6583h8.46v-13.8017h24.795v13.8017h8.46v-33.6583c0-2.2124-.885-4.3341-2.461-5.8985-1.575-1.5643-3.712-2.4432-5.941-2.4432zm-.058 19.7983h-24.777v-11.3983h24.777z"/><path d="m320.309 52.1h-3.384l-12.127-30.1c-.415-1.0328-1.132-1.9183-2.059-2.5422s-2.021-.9576-3.141-.9578h-7.532c-1.485 0-2.909.5857-3.959 1.6282-1.05 1.0426-1.64 2.4566-1.64 3.931v36.4408h8.46v-33.6h3.385l12.121 30.1c.413 1.0327 1.129 1.9185 2.055 2.5426.926.624 2.019.9576 3.138.9574h7.533c1.485 0 2.909-.5857 3.959-1.6282 1.05-1.0426 1.64-2.4566 1.64-3.931v-36.4408h-8.461z"/><path d="m205.533 18.5h-8.461v33.6583c0 2.2124.885 4.3341 2.461 5.8985 1.576 1.5643 3.713 2.4432 5.941 2.4432h25.441v-8.4h-25.382z"/></g><path clip-rule="evenodd" d="m37.954 50.525c.1502-.1615.3317-.2913.5336-.3815.202-.0902.4201-.139.6415-.1435h36.9212c.1562.0022.3084.0491.4384.1352s.2322.2076.2942.3499c.0621.1424.0814.2995.0557.4525-.0258.153-.0955.2953-.2008.4099l-7.8261 8.6275c-.1502.1615-.3317.2913-.5336.3815s-.4201.139-.6414.1435h-36.9447c-.1562-.0022-.3085-.0491-.4384-.1352-.13-.0861-.2322-.2076-.2943-.3499-.062-.1424-.0813-.2995-.0556-.4525s.0955-.2953.2008-.4099zm38.719-7.1517c.1054.1146.1751.257.2008.41.0258.153.0064.3101-.0556.4524-.0621.1424-.1643.2639-.2942.3499-.13.0861-.2823.133-.4385.1352l-36.9329.0292c-.2214-.0045-.4395-.0533-.6415-.1435-.2019-.0902-.3834-.22-.5336-.3815l-7.8848-8.5983c-.1053-.1146-.175-.257-.2008-.41-.0257-.153-.0064-.3101.0557-.4524.0621-.1424.1642-.2639.2942-.3499.13-.0861.2822-.133.4384-.1352l36.933-.0292c.2213.0045.4395.0533.6414.1435s.3834.22.5336.3815zm-38.719-24.3483c.1502-.1615.3317-.2913.5336-.3815.202-.0902.4201-.139.6415-.1435l36.9447.0292c.1562.0022.3084.0491.4384.1352.13.086.2321.2075.2942.3499.0621.1423.0814.2994.0557.4524-.0258.153-.0955.2954-.2008.41l-7.8496 8.5983c-.1502.1615-.3317.2913-.5336.3815s-.4201.139-.6414.1435h-36.9447c-.1562-.0022-.3085-.0491-.4384-.1352-.13-.0861-.2322-.2076-.2943-.3499-.062-.1424-.0813-.2995-.0556-.4525s.0955-.2953.2008-.4099z" fill="#14f195" fill-rule="evenodd"/></g><g fill="#b4b4b4"><path d="m431.075 50.0957v-2.3307h-11.321v-7.2945h10.443v-2.3306h-10.443v-6.9313h10.957v-2.3004h-13.711v21.1875z"/><path d="m441.249 50.0957 4.721-7.7183c.303-.4843.575-.908.848-1.3923l.847 1.3923 4.722 7.7183h3.239l-7.022-11.0175 6.416-10.17h-3.057l-4.025 6.5379c-.363.6053-.696 1.1804-1.029 1.695-.333-.5146-.697-1.1199-1.029-1.695l-3.996-6.5379h-3.178l6.447 10.17-7.022 11.0175z"/><path d="m466.525 50.0957v-9.1712h4.964c3.844 0 7.264-1.362 7.264-5.993 0-4.6612-3.572-6.0233-7.264-6.0233h-7.719v21.1875zm0-18.8871h4.933c3.239 0 4.48 1.4528 4.48 3.7229 0 2.2398-1.241 3.6927-4.48 3.6927h-4.933z"/><path d="m501.723 50.0957v-2.3307h-11.623v-18.8568h-2.754v21.1875z"/><path d="m516.958 50.5496c5.237 0 8.869-4.2072 8.869-11.0478 0-6.8405-3.602-11.078-8.869-11.078-5.266 0-8.899 4.2375-8.899 11.078 0 6.8406 3.663 11.0478 8.899 11.0478zm0-2.3004c-3.632 0-5.993-3.2689-5.993-8.7474 0-5.5087 2.391-8.7473 5.993-8.7473 3.572 0 5.963 3.2386 5.963 8.7473 0 5.4785-2.361 8.7474-5.963 8.7474z"/><path d="m537.398 50.0957v-9.262h4.722c3.148 0 4.45 1.0291 4.45 4.3889v4.8731h2.755v-5.6298c0-2.7847-1.453-4.5099-3.451-4.8429 1.907-.5751 3.905-2.4819 3.905-5.1455 0-3.5716-2.573-5.5693-6.629-5.5693h-8.505v21.1875zm0-18.8871h5.086c2.846 0 4.48 1.2107 4.48 3.6018 0 2.3912-1.634 3.6927-4.48 3.6927h-5.086z"/><path d="m573.221 50.0957v-2.3307h-11.32v-7.2945h10.443v-2.3306h-10.443v-6.9313h10.956v-2.3004h-13.711v21.1875z"/><path d="m584.97 50.0957v-9.262h4.721c3.148 0 4.45 1.0291 4.45 4.3889v4.8731h2.754v-5.6298c0-2.7847-1.453-4.5099-3.45-4.8429 1.906-.5751 3.904-2.4819 3.904-5.1455 0-3.5716-2.573-5.5693-6.629-5.5693h-8.505v21.1875zm0-18.8871h5.085c2.845 0 4.479 1.2107 4.479 3.6018 0 2.3912-1.634 3.6927-4.479 3.6927h-5.085z"/><path d="m632.523 54c-2.815-3.5716-4.843-7.5669-4.843-13.0151s2.028-9.383 4.843-12.9849h-2.543c-2.754 3.0268-4.933 7.2643-4.933 13.0151 0 5.7509 2.179 9.9581 4.933 12.9849z"/><path d="m649.747 50.0957c4.146 0 8.021-1.241 8.021-5.9628 0-2.6333-1.544-4.4493-4.056-5.2363 1.907-.6054 3.541-2.3609 3.541-4.6612 0-3.6624-2.754-5.3272-6.719-5.3272h-7.809v21.1875zm-4.238-18.8871h4.843c2.966 0 4.086 1.362 4.086 3.2386 0 2.149-1.543 3.39-4.298 3.39h-4.631zm0 8.9592h4.571c3.753 0 4.873 1.6345 4.873 3.8138 0 2.5122-1.453 3.7834-4.752 3.7834h-4.692z"/><path d="m680.971 50.0957v-2.3307h-11.32v-7.2945h10.443v-2.3306h-10.443v-6.9313h10.956v-2.3004h-13.711v21.1875z"/><path d="m697.984 50.0957v-18.8871h7.083v-2.3004h-16.95v2.3004h7.113v18.8871z"/><path d="m728.71 50.0957-7.657-21.1875h-3.39l-7.628 21.1875h2.845l2.18-6.2957h8.505l2.179 6.2957zm-10.079-16.617c.242-.7265.454-1.3621.666-2.0582l.696 2.0582 2.785 8.0209h-6.932z"/><path d="m736.74 28c2.815 3.5716 4.843 7.5367 4.843 13.0151 0 5.418-2.028 9.383-4.843 12.9849h2.543c2.754-3.0268 4.933-7.2643 4.933-13.0151 0-5.7812-2.179-9.9581-4.933-12.9849z"/></g></svg>