<?xml version="1.0" encoding="UTF-8" standalone="no"?>
<svg
   width="919"
   height="79"
   viewBox="0 0 919 79"
   fill="none"
   version="1.1"
   id="svg21"
   sodipodi:docname="light-explorer-logo.svg"
   inkscape:version="1.3.2 (091e20e, 2023-11-25, custom)"
   xmlns:inkscape="http://www.inkscape.org/namespaces/inkscape"
   xmlns:sodipodi="http://sodipodi.sourceforge.net/DTD/sodipodi-0.dtd"
   xmlns="http://www.w3.org/2000/svg"
   xmlns:svg="http://www.w3.org/2000/svg">
  <sodipodi:namedview
     id="namedview21"
     pagecolor="#ffffff"
     bordercolor="#000000"
     borderopacity="0.25"
     inkscape:showpageshadow="2"
     inkscape:pageopacity="0.0"
     inkscape:pagecheckerboard="0"
     inkscape:deskcolor="#d1d1d1"
     inkscape:zoom="2.8454842"
     inkscape:cx="459.5"
     inkscape:cy="39.536329"
     inkscape:window-width="3840"
     inkscape:window-height="2054"
     inkscape:window-x="2869"
     inkscape:window-y="-11"
     inkscape:window-maximized="1"
     inkscape:current-layer="svg21" />
  <defs
     id="defs21">
    <clipPath
       id="clip0">
      <rect
         width="349"
         height="42"
         fill="white"
         transform="translate(29 18.5)"
         id="rect21" />
    </clipPath>
    <linearGradient
       id="grad1"
       x1="54.135021"
       y1="87.843788"
       x2="146.95572"
       y2="87.843788"
       gradientTransform="matrix(5.0429643,0,0,0.56576142,-81.141787,-45.201766)"
       gradientUnits="userSpaceOnUse">
      <stop
         offset="0%"
         style="stop-color:#b9905b;stop-opacity:1"
         id="stop1" />
      <stop
         offset="100%"
         style="stop-color:#f3e0c0;stop-opacity:1"
         id="stop2" />
    </linearGradient>
  </defs>
  <g
     id="g44"
     transform="matrix(0.27520686,0,0,0.30138773,41.045507,0.64856597)">
    <path
       d="m 0,0 c 90.42,0 180.84,0 274,0 0,85.47 0,170.94 0,259 -90.42,0 -180.84,0 -274,0 C 0,173.53 0,88.06 0,0 Z"
       fill="#48217e"
       id="path1-6" />
    <path
       d="m 0,0 c 6.3102149,3.8840102 9.28236,8.0614742 11.304688,15.207031 0.105816,6.243147 -1.326255,11.569863 -5.1250005,16.5625 -2.8125,2.125 -2.8125,2.125 -4.6547852,2.783448 -3.6008329,1.291137 -5.6518979,2.505876 -7.6638183,5.829833 -1.3608105,3.155862 -2.5483539,6.329683 -3.6813965,9.574219 -0.8034545,2.179322 -1.6094295,4.357716 -2.4179685,6.535156 -0.39542,1.080638 -0.79084,2.161275 -1.198242,3.274659 -1.457812,3.811434 -3.133853,7.488211 -4.854737,11.186523 -1.543459,3.383814 -2.994505,6.802564 -4.42749,10.234131 -0.26602,0.636943 -0.53204,1.273886 -0.806122,1.93013 -0.828747,1.987677 -1.655907,3.97601 -2.48294,5.964401 -4.065396,9.757641 -8.173766,19.486299 -12.550782,29.109379 -1.258871,2.68298 -1.258871,2.68298 -1.074218,5.70312 0.675791,0.28198 1.351582,0.56397 2.047851,0.85449 3.071727,1.28842 6.136896,2.59177 9.202149,3.89551 1.063476,0.44344 2.126953,0.88688 3.222656,1.34375 1.024804,0.43828 2.049609,0.87656 3.105469,1.32813 0.942626,0.39799 1.885253,0.79599 2.856445,1.20605 2.790814,1.49261 4.593896,2.89633 6.565429,5.37207 -0.100504,6.23127 -1.712291,10.73185 -5.312499,15.875 -2.629592,1.75306 -4.556456,1.3745 -7.6875,1.125 -2.795673,-0.86073 -5.431943,-2.02106 -8.101563,-3.21094 -0.758885,-0.32819 -1.51777,-0.65639 -2.299652,-0.99453 -2.412493,-1.04637 -4.818022,-2.10779 -7.223785,-3.16953 -1.624577,-0.7067 -3.249573,-1.41244 -4.875,-2.11719 -17.359283,-7.55036 -17.359283,-7.55036 -19.5,-12.50781 0.398081,-5.51509 2.615963,-10.19371 4.8125,-15.1875 2.221703,-5.14664 4.42589,-10.25818 6.25,-15.5625 1.944126,-5.557103 4.486898,-10.799343 7.058593,-16.085936 1.523041,-3.25388 2.812124,-6.563934 4.078125,-9.925782 2.125244,-5.606545 4.435236,-11.110442 6.824219,-16.609375 0.717569,-1.662057 1.435015,-3.324167 2.152344,-4.986328 1.105465,-2.559569 2.215368,-5.116775 3.338379,-7.668701 1.100315,-2.505059 2.18132,-5.017725 3.259277,-7.532471 0.339456,-0.759454 0.678913,-1.518908 1.028656,-2.301376 1.896152,-4.476789 2.549281,-7.286954 1.197907,-12.14003 -1.462954,-7.883694 -0.570891,-12.960028 3.75,-19.7499998 C -17.254329,-1.4839522 -8.9334686,-3.7509965 0,0 Z"
       fill="#d5c185"
       transform="translate(232.63281,28.105469)"
       id="path2" />
    <path
       d="m 0,0 c 3.5638214,0.84091004 6.8331401,2.1647937 10.150879,3.6767578 1.648962,0.7218301 3.298785,1.4416975 4.949219,2.1601563 1.429651,0.626726 1.429651,0.626726 2.888183,1.2661132 6.340166,2.7417683 12.725599,5.3761737 19.104584,8.0260617 2.304886,0.957894 4.608958,1.917716 6.91275,2.878235 5.991812,2.497194 11.983469,4.994257 17.990235,7.455322 0.759368,0.311344 1.518737,0.622688 2.301117,0.943467 1.43168,0.586357 2.863871,1.17147 4.296691,1.755035 4.281721,1.753398 8.489733,3.620477 12.682221,5.57811 3.831154,1.788511 7.663618,3.551003 11.5625,5.1875 0.752812,0.317109 1.505625,0.634219 2.28125,0.960937 2.521744,0.754748 4.599938,0.852402 7.218751,0.664063 0.33,-0.33 0.66,-0.66 1,-1 7.69661,-0.987065 13.02241,-0.221851 19.35547,4.296875 1.83317,1.898491 2.26878,3.123354 2.64453,5.703125 0.66,0 1.32,0 2,0 1.80096,6.201708 1.62828,12.604666 0,18.8125 -2.94554,4.69446 -7.06257,7.718784 -12,10.1875 -6.25864,0.594971 -11.51323,0.312769 -17.000001,-3 -3.810572,-3.459297 -6.591571,-6.4752 -7.9375,-11.5 -0.02063,-0.825 -0.04125,-1.65 -0.0625,-2.5 C 89.686516,61.45822 89.034653,61.364683 88.363037,61.268311 84.343421,60.316049 80.726828,58.726205 76.943848,57.086914 76.127524,56.73784 75.3112,56.388766 74.470139,56.029114 71.820217,54.895058 69.173096,53.754611 66.525879,52.614258 63.792877,51.443176 61.059133,50.273841 58.325317,49.10466 56.516744,48.331105 54.708393,47.557028 52.900269,46.782425 44.913093,43.362388 36.898521,40.012076 28.871338,36.687012 22.534452,34.05948 16.22902,31.368171 9.9477539,28.610352 7.7392856,27.714401 5.6642973,27.044631 3.3383789,26.551758 c -0.1701562,0.533672 -0.3403125,1.067344 -0.515625,1.617187 -7.5005753,23.06028 -7.5005753,23.06028 -12.484375,26.382813 -5.1006879,0.971559 -8.6396229,-1.026743 -13.0468749,-3.320313 -2.761986,-2.375308 -3.329378,-4.098448 -3.953125,-7.679687 0.707956,-2.755446 1.462366,-5.040202 2.5625,-7.625 0.28158,-0.702217 0.563159,-1.404434 0.853271,-2.12793 0.843241,-2.09038 1.711,-4.169072 2.584229,-6.24707 0.665156,-1.628086 0.665156,-1.628086 1.34375,-3.289063 0.800599,-1.945045 1.612772,-3.885374 2.4375,-5.820312 0.860468,-2.040854 1.691056,-4.09443 2.5,-6.15625 0.422812,-1.067344 0.845625,-2.134688 1.28125,-3.2343752 0.372539,-0.9590625 0.745078,-1.918125 1.128906,-2.90625 C -8.9164804,0.09273267 -6.5312258,-1.0710413 0,0 Z"
       fill="#c7ad73"
       transform="translate(113.66162,159.44824)"
       id="path3" />
    <path
       d="m 0,0 c 5.3087469,3.2097366 8.6102388,6.9534995 10.433594,12.933594 0,0.99 0,1.98 0,3 1.136953,0.346758 2.273906,0.693515 3.445312,1.050781 7.666506,2.557997 15.021393,5.92364 22.429688,9.136719 2.364056,1.020648 4.728662,2.040018 7.093322,3.059265 1.549453,0.667925 3.098731,1.336256 4.647828,2.005005 5.779683,2.493773 11.575143,4.94779 17.38385,7.37323 5.520565,2.30894 10.989454,4.699724 16.421875,7.210937 4.809483,2.171555 9.696224,4.161887 14.578125,6.164063 0.118594,-0.881719 0.237187,-1.763438 0.359375,-2.671875 0.616091,-3.200669 1.502862,-5.644499 2.890625,-8.578125 0.444726,-0.941016 0.889456,-1.882031 1.347656,-2.851563 0.69416,-1.434726 0.69416,-1.434726 1.40234,-2.898437 0.6787,-1.434727 0.6787,-1.434727 1.3711,-2.898438 3.36498,-6.969598 3.36498,-6.969598 5.6289,-8.101562 4.55547,-0.257857 7.87807,0.0015 12,2 0,0.66 0,1.32 0,2 1.32,0.33 2.64,0.66 4,1 1.28733,5.730932 0.51573,9.435864 -1.85937,14.65625 -0.45757,1.058944 -0.45757,1.058944 -0.92438,2.139282 -0.97306,2.242069 -1.96904,4.473051 -2.96625,6.704468 -0.6552,1.498018 -1.30886,2.996712 -1.96093,4.496093 -1.47774,3.390676 -2.97236,6.773448 -4.47571,10.152833 -0.83283,1.895402 -1.63909,3.800773 -2.44324,5.708496 -2.03784,4.674108 -2.03784,4.674108 -4.37012,6.142578 -5.96628,0.76443 -10.406505,-1.634989 -15.687496,-4.0625 -2.064439,-0.923365 -4.129591,-1.845136 -6.195313,-2.765625 -1.132119,-0.507246 -2.264238,-1.014492 -3.430664,-1.53711 C 74.980243,67.832982 68.790104,65.213003 62.607697,62.575623 58.861986,60.977043 55.118401,59.373509 51.375,57.769531 50.631991,57.451183 49.888983,57.132835 49.123459,56.80484 41.344132,53.469717 33.574736,50.111785 25.808594,46.746094 25.189431,46.477918 24.570268,46.209743 23.932343,45.933441 22.169498,45.169724 20.407009,44.405188 18.644531,43.640625 17.043999,42.947069 17.043999,42.947069 15.411133,42.239502 12.011519,40.748478 8.6366313,39.20719 5.2739258,37.634766 2.5954594,36.614262 0.25204983,36.581287 -2.5664063,36.933594 c -0.33,0.33 -0.66,0.66 -1,1 C -9.8921161,38.796751 -14.610203,38.172626 -19.8125,34.410156 -24.680537,30.311898 -27.326908,26.53191 -28.40625,20.296875 -28.803824,14.430238 -27.515603,9.6995262 -23.878906,5.0585937 -17.637073,-1.4083055 -8.3765739,-3.4806768 0,0 Z"
       fill="#c7ad74"
       transform="translate(62.566406,26.066406)"
       id="path4" />
    <path
       d="m 0,0 c 4.2709077,0.92439047 7.9934333,2.3290663 11.986816,4.0656738 0.755099,0.3220391 1.510198,0.6440781 2.288178,0.9758759 1.586705,0.6792852 3.171617,1.3627736 4.754791,2.0502472 2.412898,1.0458974 4.832767,2.0741787 7.253906,3.1008301 1.547324,0.664974 3.094214,1.330955 4.640625,1.998047 1.076725,0.456487 1.076725,0.456487 2.175202,0.922195 4.035348,1.767035 7.581951,3.53507 10.723236,6.714524 1.204175,6.109505 -2.27379,12.753375 -4.75,18.1875 -0.734869,1.671818 -1.466625,3.345009 -2.195313,5.019531 -0.532221,1.221306 -0.532221,1.221306 -1.075195,2.467285 -1.344924,3.193357 -2.481169,6.422489 -3.604492,9.700684 -1.936819,5.596694 -4.296703,10.861617 -6.835938,16.207031 -2.00169,4.445378 -3.682024,8.979361 -5.363525,13.552978 -2.820026,7.661179 -5.966009,15.167398 -9.300537,22.618898 -0.55615,1.2659 -0.55615,1.2659 -1.1235352,2.55737 -0.7371198,1.67761 -1.4863585,3.34996 -2.2490235,5.01612 -2.0166925,4.62418 -3.0563646,7.64158 -1.5024414,12.6726 0.33,0.66 0.66,1.32 1,2 0.5463384,6.92379 0.7146925,13.00856 -3,19 -4.28705336,4.55629 -7.5720728,6.79973 -13.8749999,7.16797 -1.03125,0.006 -2.0625,0.0129 -3.125,0.0195 -1.03125,0.0142 -2.0625,0.0284 -3.125,0.043 -2.840452,-0.2277 -4.46608,-0.76543 -6.875,-2.23047 0,-0.66 0,-1.32 0,-2 -0.5775,-0.18562 -1.155,-0.37125 -1.75,-0.5625 -4.330761,-2.76687 -5.907971,-7.09381 -7.125,-11.875 -0.239667,-6.8305 1.419104,-12.26359 5.875,-17.5625 5.552795,-4 5.552795,-4 9,-4 0.09797,-0.6484 0.195937,-1.29679 0.296875,-1.96484 0.934309,-4.0331 2.426789,-7.75584 3.953125,-11.59766 0.431191,-1.10311 0.431191,-1.10311 0.871094,-2.22851 C -8.3889385,92.708202 -4.4608921,83.484893 -0.56144714,74.252075 1.2126585,70.048299 2.9788079,65.841193 4.744873,61.634033 c 0.9333838,-2.219798 1.8692916,-4.438536 2.8076172,-6.65625 1.3636666,-3.224461 2.7182328,-6.452613 4.0710448,-9.68164 0.42179,-0.991652 0.843581,-1.983304 1.278153,-3.005005 0.384276,-0.921962 0.768553,-1.843924 1.164474,-2.793824 0.340217,-0.807637 0.680434,-1.615275 1.03096,-2.447387 0.932542,-2.466614 0.932542,-2.466614 0.725632,-6.222534 C 15.070667,30.504644 14.318579,30.181895 13.543701,29.849365 10.154589,28.390481 6.7699088,26.921586 3.3852539,25.452393 2.20125,24.944502 1.0172461,24.436611 -0.20263672,23.91333 -1.3273437,23.423486 -2.4520508,22.933643 -3.6108398,22.428955 c -1.0421265,-0.450366 -2.084253,-0.900732 -3.157959,-1.364746 -2.4084473,-1.236816 -2.4084473,-1.236816 -3.4084472,-3.236816 -0.539502,-6.258221 0.3448126,-10.7922753 3.9999999,-16.0000004 3,-2.00000002 3,-2.00000002 6.1772461,-1.8273926 z"
       fill="#d5c083"
       transform="translate(66.177246,81.172607)"
       id="path5" />
    <path
       d="m 0,0 c 3.7133096,0.63505533 7.1867002,2.1514276 10.6875,3.5 1.158867,0.4434375 2.317734,0.886875 3.511719,1.34375 C 17,6 17,6 18,7 c 0.874661,6.18295 -1.930043,11.092101 -4.4375,16.5625 -0.920642,2.044956 -1.83988,4.090545 -2.757812,6.136719 -0.468252,1.039468 -0.9365044,2.078935 -1.4189458,3.149902 -1.3533192,3.077156 -2.6284825,6.174803 -3.8779297,9.29541 -0.391311,0.964138 -0.7826221,1.928277 -1.185791,2.921631 -0.7442621,1.842637 -1.4744463,3.691037 -2.1889649,5.54541 C -0.34047371,56.642896 -0.34047371,56.642896 -3.3085938,58.25 -6.9509179,57.911671 -9.9748486,56.653857 -13.25,55.125 -14.205195,54.701543 -14.205195,54.701543 -15.179688,54.269531 -19.808518,52.191482 -19.808518,52.191482 -21,51 -20.775923,44.949932 -19.065506,40.541007 -16.457031,35.121094 -14.828715,31.633093 -13.40279,28.082446 -12,24.5 -3.8461217,3.8461217 -3.8461217,3.8461217 0,0 Z"
       fill="#ebdf9d"
       transform="translate(222,98)"
       id="path6" />
    <path
       d="m 0,0 c 5.9111805,0.53988323 10.640457,2.3037089 16.039062,4.7109375 0.843883,0.3688028 1.687766,0.7376056 2.557221,1.1175842 1.775028,0.7777105 3.548249,1.5595571 5.319733,2.3453064 2.703668,1.1988146 5.412745,2.3846289 8.123046,3.5683599 1.729499,0.759662 3.458676,1.520054 5.1875,2.28125 1.207968,0.52985 1.207968,0.52985 2.440339,1.070404 C 43.609762,16.846649 47.357202,18.664125 51,21 c -0.618115,4.553159 -2.467659,8.284598 -4.5625,12.3125 -0.329355,0.645176 -0.658711,1.290352 -0.998047,1.955078 C 44.631757,36.847852 43.816624,38.424321 43,40 37.288479,39.398205 32.509739,37.296004 27.296875,35.035156 26.377874,34.641786 25.458873,34.248415 24.512024,33.843124 22.577604,33.013281 20.644582,32.180169 18.712891,31.343994 15.749764,30.062398 12.781557,28.79318 9.8125,27.525391 7.931978,26.716875 6.0517588,25.907655 4.171875,25.097656 3.2823212,24.717388 2.3927673,24.337119 1.4762573,23.945328 0.65490295,23.588333 -0.16645142,23.231338 -1.0126953,22.863525 -1.7362823,22.551215 -2.4598694,22.238904 -3.2053833,21.91713 -5,21 -5,21 -7,19 -7,11.905778 -3.2828,6.1138385 0,0 Z"
       fill="#e2d393"
       transform="translate(112,29)"
       id="path7" />
    <path
       d="M 0,0 C 6.4366184,0.33876939 14.412953,3.4129526 19,8 17.663712,18.408983 10.807337,29.929393 6.8125,39.5625 6.3846118,40.597295 5.9567236,41.63209 5.5158691,42.698242 4.3605084,45.472918 3.1853901,48.238047 2,51 1.4882422,52.205273 0.97648437,53.410547 0.44921875,54.652344 -1,57 -1,57 -2.8632813,57.727539 -6.4947425,58.1906 -9.4877735,56.343863 -12.6875,54.8125 c -1.033506,-0.457295 -1.033506,-0.457295 -2.087891,-0.923828 -4.992819,-2.341765 -4.992819,-2.341765 -6.014465,-4.752335 -0.251085,-2.552549 0.200803,-3.915916 1.18927,-6.274765 0.330745,-0.80441 0.661491,-1.60882 1.002258,-2.437607 0.367605,-0.860494 0.735209,-1.720989 1.113953,-2.607559 0.557449,-1.338779 0.557449,-1.338779 1.12616,-2.704605 0.788422,-1.887552 1.58229,-3.772838 2.381164,-5.65599 1.219008,-2.874345 2.421719,-5.75507 3.621582,-8.637452 0.7685824,-1.834382 1.5380838,-3.668379 2.308594,-5.501953 0.3595075,-0.85847 0.7190149,-1.71694 1.0894165,-2.601425 C -2.6988815,2.6988815 -2.6988815,2.6988815 0,0 Z"
       fill="#eee39e"
       transform="translate(56,108)"
       id="path8" />
    <path
       d="m 0,0 c 5.9615089,0.27606666 10.904605,2.3893143 16.328125,4.7460937 1.306233,0.5567617 1.306233,0.5567617 2.638855,1.1247712 1.830399,0.7820353 3.659092,1.5680749 5.486145,2.3578949 2.798341,1.2093737 5.601729,2.4063552 8.40625,3.6013182 1.781556,0.762957 3.562817,1.526605 5.34375,2.291016 1.256262,0.537592 1.256262,0.537592 2.537903,1.086044 0.778009,0.336974 1.556019,0.673948 2.357605,1.021133 0.68282,0.294546 1.365641,0.589092 2.069153,0.892563 C 47,18 47,18 50,20 49.426977,26.589761 47.796793,34.203207 43,39 37.038491,38.723933 32.095395,36.610686 26.671875,34.253906 25.801053,33.882732 24.930231,33.511557 24.03302,33.129135 22.202621,32.3471 20.373928,31.56106 18.546875,30.77124 15.748534,29.561867 12.945146,28.364885 10.140625,27.169922 8.3590685,26.406965 6.5778079,25.643317 4.796875,24.878906 3.9593671,24.520512 3.1218591,24.162117 2.2589722,23.792862 1.4809625,23.455888 0.70295288,23.118914 -0.09863281,22.771729 -0.78145325,22.477183 -1.4642737,22.182637 -2.1677856,21.879166 -4,21 -4,21 -7,19 -6.3237578,12.74476 -4.5500979,4.5500979 0,0 Z"
       fill="#e6d896"
       transform="translate(121,195)"
       id="path9" />
    <path
       d="m 0,0 c 5.5088281,0.32404871 8.7164412,1.7356176 14,4 0,7.92 0,15.84 0,24 C 8.2808722,26.093624 3.6406249,24.503771 -1.5625,21.8125 -2.5950391,21.282695 -3.6275781,20.752891 -4.6914062,20.207031 -5.4532422,19.808711 -6.2150781,19.410391 -7,19 -6.4088003,14.879886 -5.4927322,11.157502 -4.0625,7.25 -3.7234766,6.3064062 -3.3844531,5.3628125 -3.0351563,4.390625 -2,2 -2,2 0,0 Z"
       fill="#cab177"
       transform="translate(121,195)"
       id="path10" />
    <path
       d="M 0,0 C 0.33,0 0.66,0 1,0 1.019819,1.2513574 1.039639,2.5027148 1.060059,3.7919922 1.136153,8.436402 1.224865,13.0805 1.3173832,17.724609 c 0.038274,2.009703 0.07313,4.019475 0.1044922,6.029297 0.045685,2.889571 0.1036739,5.778673 0.1640625,8.667969 0.011551,0.898054 0.023102,1.796107 0.035004,2.721375 0.01987,0.840569 0.039739,1.681138 0.060211,2.54718 0.013324,0.737243 0.026647,1.474486 0.040375,2.23407 C 2.0382018,42.284724 2.8329685,43.939207 4,46 -0.22743858,47.409146 -2.8073474,45.617274 -6.625,43.8125 -7.3185156,43.507637 -8.0120313,43.202773 -8.7265625,42.888672 -13.777554,40.535817 -13.777554,40.535817 -14.783554,38.11261 c -0.383051,-3.738751 1.504615,-7.013117 2.967148,-10.378235 0.334355,-0.793398 0.668711,-1.586796 1.013199,-2.404236 1.0696502,-2.531356 2.1549163,-5.05567 3.240707,-7.580139 0.7282525,-1.715705 1.4554787,-3.431846 2.1816406,-5.148437 C -3.5991052,8.3958913 -1.8033179,4.1964677 0,0 Z"
       fill="#d9c687"
       transform="translate(50,119)"
       id="path11" />
    <path
       d="m 0,0 c 6.5178754,0.52847638 14.323901,3.3239005 19,8 -0.457699,3.661594 -2.184348,7.105314 -3.5625,10.5 -0.535308,1.324157 -1.070455,2.64838 -1.605469,3.972656 -0.290522,0.71688 -0.581045,1.43376 -0.880371,2.172364 C 11.163227,29.07068 9.3959388,33.504818 7.625,37.9375 6.9297685,39.675814 6.2344627,41.414098 5.5390625,43.152344 5.2420947,43.894763 4.9451269,44.637183 4.6391602,45.4021 4.4282373,45.929407 4.2173144,46.456714 4,47 3.67,47 3.34,47 3,47 3,31.82 3,16.64 3,1 2.01,0.67 1.02,0.34 0,0 Z"
       fill="#d6c283"
       transform="translate(56,108)"
       id="path12" />
    <path
       d="m 0,0 c 4.5134096,0.43398169 7.7289529,1.2915812 12,3 0,7.92 0,15.84 0,24 C 7.6372569,26.127451 4.2889368,25.022746 0.25,23.25 -0.89984375,22.760156 -2.0496875,22.270312 -3.234375,21.765625 -6,20 -6,20 -7.0703125,17.75 -6.974982,14.021519 -5.6758768,11.072323 -4.125,7.75 -3.701543,6.7948047 -3.701543,6.7948047 -3.2695313,5.8203125 -1.1914817,1.1914817 -1.1914817,1.1914817 0,0 Z"
       fill="#c7ad73"
       transform="translate(112,29)"
       id="path13" />
    <path
       d="m 0,0 c 4.8356294,0.3223753 7.1332681,1.6890175 10.5625,5 1.758487,3.3318707 1.700125,5.53347 1.1875,9.25 -1.7902378,2.970469 -3.8500483,5.425024 -7,7 -5.15434412,0.506985 -5.15434412,0.506985 -8,0 -2.9375,-2.4375 -2.9375,-2.4375 -5,-5 -0.33,-0.33 -0.66,-0.66 -1,-1 -0.4416675,-3.053816 -0.4822309,-5.9510564 0,-9 2.4375,-3 2.4375,-3 5,-5 1,-1 1,-1 4.25,-1.25 z"
       fill="#4c257e"
       transform="translate(222.25,207.75)"
       id="path14" />
    <path
       d="m 0,0 c 2.8702987,1.7939367 4.4913164,2.9826328 6,6 0.4973766,4.973766 0.5451142,7.063085 -2,11.4375 -3.22727759,2.756633 -4.87520802,3.511944 -9.0039062,3.738281 C -8.1857368,20.895581 -10.371256,19.752496 -13,18 -15.470925,14.293613 -15.554078,11.298305 -15,7 -11.815617,0.02468566 -7.1365097,-1.0516962 0,0 Z"
       fill="#4f297f"
       transform="translate(229,36)"
       id="path15" />
    <path
       d="m 0,0 c 4.0964429,0.05868829 5.0004433,0.24284575 8.375,2.875 2.210566,3.331639 2.587772,6.4984802 2.375,10.441406 -0.8076966,3.426401 -2.773778,5.043972 -5.5,7.121094 -2.9177478,1.458874 -4.74728105,1.368232 -8,1 -2.9306417,-1.172257 -4.9988186,-2.546235 -7,-5 -1.205899,-3.421389 -1.530755,-6.408559 -1,-10 2.375,-3.0625 2.375,-3.0625 5,-5 C -4.107108,-0.20539196 -2.2603972,0.11034483 0,0 Z"
       fill="#4a227c"
       transform="translate(53.75,33.5625)"
       id="path16" />
    <path
       d="M 0,0 C 3.6196875,1.423125 3.6196875,1.423125 7.3125,2.875 8.0682935,3.1700342 8.8240869,3.4650684 9.6027832,3.769043 12.643602,4.9752712 15.268375,6.1789168 18,8 17.426977,14.589761 15.796793,22.203207 11,27 6.4581777,26.657221 3.2849546,25.713982 -1,24 -0.67,16.08 -0.34,8.16 0,0 Z"
       fill="#b4915d"
       transform="translate(153,207)"
       id="path17" />
    <path
       d="m 0,0 c 3.3521149,2.1861619 4.726866,3.1805981 6,7 0.3888776,4.199878 0.4590832,6.296072 -1.875,9.875 -2.8444141,2.844414 -4.5137432,3.328542 -8.4375,3.5 C -8.1842611,20.356296 -8.8170079,20.148681 -12,17.5625 -12.66,16.716875 -13.32,15.87125 -14,15 -14.33,14.67 -14.66,14.34 -15,14 -15.478141,9.2982821 -15.729311,6.3259414 -12.6875,2.5625 -8.4082187,-1.517745 -5.5968447,-1.2544652 0,0 Z"
       fill="#49217c"
       transform="translate(58,208)"
       id="path18" />
    <path
       d="m 0,0 c 3.7063084,0.80532133 7.1526305,2.1383033 10.6875,3.5 1.158867,0.4434375 2.317734,0.886875 3.511719,1.34375 C 17,6 17,6 18,7 c 0.309473,4.380872 -0.28767,7.387922 -2.082031,11.371094 -0.437637,0.986777 -0.875274,1.973554 -1.326172,2.990234 -0.463418,1.015137 -0.926836,2.030274 -1.404297,3.076172 -0.451816,1.01127 -0.903633,2.022539 -1.369141,3.064453 -0.873749,1.955413 -1.751349,3.909112 -2.6333004,5.86084 C 7.7489656,36.558647 6.3658815,39.773615 5,43 4.67,43 4.34,43 4,43 4,30.13 4,17.26 4,4 3.34,4 2.68,4 2,4 2,3.01 2,2.02 2,1 1.34,0.67 0.68,0.34 0,0 Z"
       fill="#ceb77d"
       transform="translate(222,98)"
       id="path19" />
    <path
       d="m 0,0 c 2.9049716,2.9049716 2.3544517,5.9539931 2.4140625,9.8515625 0.019366,0.7740315 0.038732,1.5480635 0.058685,2.3455505 0.059851,2.47585 0.1062023,4.951746 0.1522522,7.427887 0.038175,1.677104 0.077226,3.354188 0.1171875,5.03125 C 2.8383041,28.770674 2.9223144,32.885189 3,37 1.5625762,36.538961 0.1266667,36.073199 -1.3085937,35.605469 -2.1083765,35.346609 -2.9081592,35.087749 -3.7321777,34.821045 -6.3863859,33.860112 -8.6658036,32.58123 -11,31 -10.655309,24.910462 -9.0460151,20.444049 -6.4101562,14.964844 -4.0775065,10.060464 -2.0602409,5.0234811 0,0 Z"
       fill="#cdb57b"
       transform="translate(212,118)"
       id="path20" />
    <path
       d="M 0,0 C 1.9391258,0.78767592 3.8762477,1.5802867 5.8125,2.375 6.8914453,2.8158594 7.9703906,3.2567188 9.0820313,3.7109375 12,5 12,5 15,7 14.381885,11.553159 12.532341,15.284598 10.4375,19.3125 9.9434668,20.280264 9.9434668,20.280264 9.4394531,21.267578 8.6317575,22.847852 7.8166239,24.424321 7,26 1.25,25.25 1.25,25.25 -1,23 -1.1352539,20.661621 -1.1352539,20.661621 -0.9765625,17.773437 -0.925,16.742187 -0.8734375,15.710938 -0.8203125,14.648438 -0.75585938,13.568203 -0.69140625,12.487969 -0.625,11.375 -0.56828125,10.287031 -0.5115625,9.1990625 -0.453125,8.078125 -0.3113698,5.3847761 -0.15993358,2.6923207 0,0 Z"
       fill="#b79662"
       transform="translate(148,43)"
       id="path21" />
    <path
       d="M 0,0 C 1.2940959,0.45142881 2.5852106,0.91141021 3.875,1.375 4.9539453,1.7578516 4.9539453,1.7578516 6.0546875,2.1484375 8,3 8,3 10,5 9.5421396,8.9192849 7.6109162,12.616309 6.125,16.25 5.5826844,17.589581 5.0410121,18.929423 4.5,20.269531 4.2408984,20.911001 3.9817969,21.552471 3.7148438,22.213379 2.4180584,25.454456 1.2036388,28.723428 0,32 c -0.33,0 -0.66,0 -1,0 -0.029076,-4.395819 -0.046824,-8.791614 -0.0625,-13.1875 -0.00838,-1.245879 -0.016758,-2.491758 -0.025391,-3.775391 -0.00322,-1.20205 -0.00645,-2.404101 -0.00977,-3.642578 C -1.102901,10.289563 -1.108135,9.1845947 -1.11353,8.0461426 -1.0090192,5.2420062 -0.64097959,2.7258267 0,0 Z"
       fill="#c1a56c"
       transform="translate(65,111)"
       id="path22" />
    <path
       d="M 0,0 C 4.95,1.98 4.95,1.98 10,4 10.632002,10.023768 8.3933329,14.506172 6,19.875 5.6184375,20.754141 5.236875,21.633281 4.84375,22.539062 3.9054545,24.697142 2.9573857,26.850338 2,29 1.67,29 1.34,29 1,29 0.83008756,25.666824 0.66466921,22.333439 0.5,19 0.45230469,18.06543 0.40460938,17.130859 0.35546875,16.167969 0.0912539,10.770437 -0.05098037,5.403919 0,0 Z"
       fill="#c3a76e"
       transform="translate(230,101)"
       id="path23" />
    <path
       d="m 0,0 c 1.125,3.75 1.125,3.75 0,6 -0.08510205,1.9593604 -0.10717656,3.9216279 -0.09765625,5.882813 0.0032227,1.166601 0.0064453,2.333203 0.0097656,3.535156 0.0083789,1.22332 0.01675781,2.44664 0.02539062,3.707031 0.0045117,1.231055 0.0090234,2.462109 0.01367188,3.730469 C -0.0370133,25.903694 -0.02054028,28.951823 0,32 -1.4864385,31.435454 -2.9640602,30.847651 -4.4375,30.25 -5.2612109,29.925156 -6.0849219,29.600312 -6.9335937,29.265625 -9,28 -9,28 -9.9157715,26.211914 -10.031651,23.16882 -9.113331,21.151929 -7.9101562,18.359375 -7.4557617,17.289453 -7.0013672,16.219531 -6.5332031,15.117188 -6.0478711,14.006016 -5.5625391,12.894844 -5.0625,11.75 -4.3403027,10.060039 -4.3403027,10.060039 -3.6035156,8.3359375 -2.4124158,5.5527736 -1.210947,2.7745724 0,0 Z"
       fill="#bb9d67"
       transform="translate(45,131)"
       id="path24" />
    <path
       d="M 0,0 C 0.5625,1.9375 0.5625,1.9375 1,4 0.67,4.33 0.34,4.66 0,5 c -0.12232644,1.4725064 -0.1777456,2.9506571 -0.20532227,4.4279785 -0.0199452,0.9408995 -0.0398904,1.8817995 -0.0604401,2.8512115 -0.0167125,1.022906 -0.033425,2.045813 -0.0506439,3.099716 -0.0207811,1.041799 -0.0415622,2.083599 -0.062973,3.156967 -0.0656113,3.342139 -0.12443404,6.68436 -0.18312073,10.026627 -0.0431742,2.259774 -0.0867881,4.51954 -0.13085938,6.779297 C -0.80068367,40.894444 -0.90242812,46.447173 -1,52 -1.99,51.34 -2.98,50.68 -4,50 -4.4008461,47.15449 -4.6094182,44.518993 -4.6875,41.660156 -4.71731,40.823429 -4.747119,39.986701 -4.777832,39.124619 -4.835666,37.346903 -4.885569,35.568916 -4.9282227,33.790771 -4.9989437,31.10267 -5.1131623,28.418839 -5.2304687,25.732422 -5.5506977,16.109744 -5.3978199,8.3943329 0,0 Z"
       fill="#dccc8e"
       transform="translate(218,104)"
       id="path25" />
    <path
       d="M 0,0 C 1.98,0.66 3.96,1.32 6,2 6,9.59 6,17.18 6,25 3.69,24.67 1.38,24.34 -1,24 -0.67,16.08 -0.34,8.16 0,0 Z"
       fill="#ccb378"
       transform="translate(153,207)"
       id="path26" />
    <path
       d="M 0,0 C 0.99,0 1.98,0 3,0 2.67,7.59 2.34,15.18 2,23 -4,21 -4,21 -7,19 -6.3237578,12.74476 -4.5500979,4.5500979 0,0 Z"
       fill="#ad8856"
       transform="translate(121,195)"
       id="path27" />
    <path
       d="M 0,0 C 0.99,0.33 1.98,0.66 3,1 2.67,8.26 2.34,15.52 2,23 -5,21 -5,21 -7,19 -7,11.905778 -3.2828,6.1138385 0,0 Z"
       fill="#ac8757"
       transform="translate(112,29)"
       id="path28" />
    <path
       d="M 0,0 C 0.33,0 0.66,0 1,0 1,9.24 1,18.48 1,28 -7,25 -7,25 -8,24 -7.7703465,17.799356 -5.9486731,13.171741 -3.2539063,7.6132812 -2.0531597,5.1107909 -1.0023225,2.5873907 0,0 Z"
       fill="#ba9b68"
       transform="translate(209,125)"
       id="path29" />
    <path
       d="M 0,0 C 0.33,0 0.66,0 1,0 1,12.54 1,25.08 1,38 0.01,37.67 -0.98,37.34 -2,37 -3.9986227,33.002755 -3.22899,27.956226 -3.25,23.5625 -3.270625,22.519004 -3.29125,21.475508 -3.3125,20.400391 -3.3485142,13.148037 -2.2691081,6.885186 0,0 Z m -2,33 c 1,2 1,2 1,2 z"
       fill="#ccb478"
       transform="translate(47,126)"
       id="path30" />
    <path
       d="M 0,0 C 0.33,0 0.66,0 1,0 0.90788766,7.0843911 0.80060338,14.168434 0.68261719,21.252441 0.64426353,23.663846 0.6094221,26.07531 0.578125,28.486816 0.532613,31.947153 0.47459596,35.407085 0.4140625,38.867187 0.4025113,39.950554 0.3909601,41.03392 0.3790588,42.150116 0.3591891,43.151002 0.3393194,44.151889 0.3188476,45.183105 0.3055239,46.066909 0.2922003,46.950712 0.2784728,47.861298 0,50 0,50 -2,52 -2.050814,45.558791 -2.085782,39.117634 -2.1098633,32.67627 c -0.010042,-2.190124 -0.023678,-4.380235 -0.041016,-6.570313 -0.024327,-3.15254 -0.035622,-6.304902 -0.044434,-9.45752 -0.010323,-0.975226 -0.020645,-1.950452 -0.03128,-2.95523 C -2.2274095,8.7180884 -1.9732363,4.6633924 0,0 Z"
       fill="#e6d897"
       transform="translate(53,111)"
       id="path31" />
    <path
       d="M 0,0 C 2.475,0.495 2.475,0.495 5,1 6.4210626,6.6842503 6.3064541,12.255875 5.4375,18 4.9511394,21.424512 5.2768961,24.414683 5.8007812,27.84375 6.1748573,31.892573 5.8494109,36.026234 5,40 4.34,40.66 3.68,41.32 3,42 3,28.47 3,14.94 3,1 2.01,0.67 1.02,0.34 0,0 Z"
       fill="#ddcc8c"
       transform="translate(56,108)"
       id="path32" />
    <path
       d="m 0,0 c 1.875,0.3125 1.875,0.3125 4,1 5.1052278,7.6578417 3.0226456,20.352403 2.6875,29.25 -0.034563,1.024482 -0.069126,2.048965 -0.1047363,3.104492 -0.04407,0.960674 -0.08814,1.921348 -0.133545,2.911133 -0.037786,0.863994 -0.075571,1.727988 -0.1145019,2.618164 C 6,41 6,41 4,43 4,30.13 4,17.26 4,4 3.34,4 2.68,4 2,4 2,3.01 2,2.02 2,1 1.34,0.67 0.68,0.34 0,0 Z"
       fill="#d7c589"
       transform="translate(222,98)"
       id="path33" />
    <path
       d="M 0,0 C 1.98,0.66 3.96,1.32 6,2 6.3764914,7.0983212 5.1081878,10.826253 3,15.375 2.7138281,16.015664 2.4276563,16.656328 2.1328125,17.316406 1.4317683,18.882072 0.71724882,20.441692 0,22 -1.1402826,18.579152 -0.70707294,17.457343 0,14 0.06701506,11.563332 0.08528021,9.1249826 0.0625,6.6875 0.04896484,4.8061133 0.04896484,4.8061133 0.03515625,2.8867188 0.02355469,1.9341016 0.01195312,0.98148437 0,0 Z"
       fill="#b2905e"
       transform="translate(234,103)"
       id="path34" />
    <path
       d="M 0,0 C 0.33,0 0.66,0 1,0 1,5.94 1,11.88 1,18 -4,16 -4,16 -4.9648437,14.265625 -5.0153573,11.01031 -3.8811622,8.7089494 -2.5625,5.75 -2.0894141,4.6723437 -1.6163281,3.5946875 -1.1289062,2.484375 -0.75636719,1.6645312 -0.38382813,0.8446875 0,0 Z"
       fill="#ae8a56"
       transform="translate(40,143)"
       id="path35" />
    <path
       d="M 0,0 C 4,1 4,1 6,3 5.5299908,6.3721298 4.1122887,9.5667016 2.9375,12.75 2.5752734,13.734844 2.2130469,14.719687 1.8398437,15.734375 1.5626953,16.482031 1.2855469,17.229687 1,18 0.67,18 0.34,18 0,18 0,12.06 0,6.12 0,0 Z"
       fill="#b18e5a"
       transform="translate(69,113)"
       id="path36" />
    <path
       d="M 0,0 C 0.33,0 0.66,0 1,0 1.33,5.94 1.66,11.88 2,18 0.02,17.01 -1.96,16.02 -4,15 -3.503417,9.3389541 -2.4548932,5.1232553 0,0 Z"
       fill="#ac895c"
       transform="translate(205,134)"
       id="path37" />
    <path
       d="M 0,0 C 0.33,0 0.66,0 1,0 1.019819,1.2513574 1.039639,2.5027148 1.060059,3.7919922 1.136153,8.436402 1.224865,13.0805 1.3173832,17.724609 c 0.038274,2.009703 0.07313,4.019475 0.1044922,6.029297 0.045685,2.889571 0.1036739,5.778673 0.1640625,8.667969 0.011551,0.898054 0.023102,1.796107 0.035004,2.721375 0.01987,0.840569 0.039739,1.681138 0.060211,2.54718 0.013324,0.737243 0.026647,1.474486 0.040375,2.23407 C 2.0382018,42.284724 2.8329685,43.939207 4,46 2.515,46.495 2.515,46.495 1,47 0,46 0,46 -0.12025452,44.133408 c 0.002221,-0.814965 0.004441,-1.629929 0.006729,-2.46959 7.553e-5,-0.920879 1.5106e-4,-1.841758 2.2888e-4,-2.790542 0.005161,-1.001033 0.0103226,-2.002065 0.01564026,-3.033432 0.0014149,-1.019603 0.0028299,-2.039206 0.0042877,-3.089707 0.0056176,-3.270908 0.01817303,-6.541749 0.03086853,-9.812637 0.0050127,-2.211588 0.009576,-4.423176 0.01367188,-6.634766 C -0.03777584,10.868466 -0.02102063,5.434238 0,0 Z"
       fill="#decd90"
       transform="translate(50,119)"
       id="path38" />
    <path
       d="M 0,0 C 1.98,0.99 1.98,0.99 4,2 3.67,2.66 3.34,3.32 3,4 2.8487617,5.5195764 2.7511831,7.044725 2.6835938,8.5703125 2.6416992,9.4662109 2.5998047,10.362109 2.5566406,11.285156 2.497666,12.690879 2.497666,12.690879 2.4375,14.125 2.3943164,15.069883 2.3511328,16.014766 2.3066406,16.988281 2.2004093,19.325371 2.0983682,21.662568 2,24 1.34,24 0.68,24 0,24 0,16.08 0,8.16 0,0 Z"
       fill="#dac789"
       transform="translate(124,33)"
       id="path39" />
    <path
       d="M 0,0 C 1.98,0.99 1.98,0.99 4,2 3.67,12.89 3.34,23.78 3,35 2.67,35 2.34,35 2,35 1.9749438,34.117395 1.9498877,33.23479 1.9240723,32.325439 1.8286647,29.035934 1.7294481,25.746588 1.6276855,22.457275 1.584502,21.036422 1.5428159,19.615523 1.5026855,18.19458 1.444579,16.146505 1.3810036,14.09866 1.3164062,12.050781 1.2797485,10.820129 1.2430908,9.5894775 1.2053223,8.3215332 1.0273058,5.4417302 0.65390895,2.8041291 0,0 Z"
       fill="#ceb77b"
       transform="translate(61,109)"
       id="path40" />
    <path
       d="M 0,0 C 4,2 4,2 4.9375,3.75 5.0288233,7.0376398 3.5964834,9.1901892 2,12 1.67,12 1.34,12 1,12 0.67,8.04 0.34,4.08 0,0 Z"
       fill="#a27b50"
       transform="translate(70,113)"
       id="path41" />
    <path
       d="M 0,0 C 0.33,0 0.66,0 1,0 1,3.3 1,6.6 1,10 0.01,9.67 -0.98,9.34 -2,9 -1.125,1.125 -1.125,1.125 0,0 Z"
       fill="#a07851"
       transform="translate(203,140)"
       id="path42" />
    <path
       d="M 0,0 C 0.33,0 0.66,0 1,0 1,3.3 1,6.6 1,10 0.01,9.34 -0.98,8.68 -2,8 -1.4773153,5.2372382 -0.89130413,2.6739124 0,0 Z"
       fill="#986f4d"
       transform="translate(37,150)"
       id="path43" />
    <path
       d="M 0,0 C 1.32,0.33 2.64,0.66 4,1 4.125,3.875 4.125,3.875 4,7 3.34,7.66 2.68,8.32 2,9 2,6.69 2,4.38 2,2 1.34,2 0.68,2 0,2 0,1.34 0,0.68 0,0 Z"
       fill="#a17a53"
       transform="translate(236,104)"
       id="path44" />
  </g>
  <text
     x="425.59314"
     y="56.145229"
     font-size="70.943px"
     font-weight="bold"
     fill="url(#grad1)"
     font-family="Arial"
     text-anchor="middle"
     id="text2"
     style="fill:url(#grad1);stroke-width:1.68912"
     transform="scale(1.0044445,0.9955752)">Z4 NETWORK</text>
  <text
     x="409.13165"
     y="78.355057"
     font-size="19.4224px"
     fill="#d9b98e"
     font-family="Arial"
     letter-spacing="5"
     text-anchor="middle"
     id="text3"
     transform="scale(1.0444725,0.95742109)"
     style="stroke-width:1.21389">NEW ERA BLOCKCHAIN NETWORK</text>
</svg>
