<?xml version="1.0" encoding="UTF-8" standalone="no"?>
<svg
   version="1.1"
   width="274"
   height="259"
   id="svg44"
   sodipodi:docname="favicon.svg"
   inkscape:version="1.3.2 (091e20e, 2023-11-25, custom)"
   xmlns:inkscape="http://www.inkscape.org/namespaces/inkscape"
   xmlns:sodipodi="http://sodipodi.sourceforge.net/DTD/sodipodi-0.dtd"
   xmlns="http://www.w3.org/2000/svg"
   xmlns:svg="http://www.w3.org/2000/svg">
  <defs
     id="defs44" />
  <sodipodi:namedview
     id="namedview44"
     pagecolor="#ffffff"
     bordercolor="#000000"
     borderopacity="0.25"
     inkscape:showpageshadow="2"
     inkscape:pageopacity="0.0"
     inkscape:pagecheckerboard="0"
     inkscape:deskcolor="#d1d1d1"
     inkscape:zoom="7.03861"
     inkscape:cx="137.0299"
     inkscape:cy="129.5"
     inkscape:window-width="3840"
     inkscape:window-height="2054"
     inkscape:window-x="2869"
     inkscape:window-y="-11"
     inkscape:window-maximized="1"
     inkscape:current-layer="svg44" />
  <path
     d="M0 0 C90.42 0 180.84 0 274 0 C274 85.47 274 170.94 274 259 C183.58 259 93.16 259 0 259 C0 173.53 0 88.06 0 0 Z "
     fill="#48217E"
     transform="translate(0,0)"
     id="path1" />
  <path
     d="M0 0 C6.31021492 3.88401018 9.28236003 8.06147417 11.3046875 15.20703125 C11.41050355 21.45017799 9.97843296 26.77689436 6.1796875 31.76953125 C3.3671875 33.89453125 3.3671875 33.89453125 1.52490234 34.55297852 C-2.07593059 35.84411557 -4.12699565 37.05885523 -6.13891602 40.3828125 C-7.49972646 43.53867418 -8.68726992 46.71249502 -9.8203125 49.95703125 C-10.62376702 52.13635295 -11.42974166 54.31474727 -12.23828125 56.4921875 C-12.63370117 57.57282471 -13.02912109 58.65346191 -13.43652344 59.7668457 C-14.89433535 63.57828007 -16.57037563 67.25505701 -18.29125977 70.95336914 C-19.83471921 74.33718278 -21.28576498 77.75593259 -22.71875 81.1875 C-22.9847702 81.8244429 -23.25079041 82.4613858 -23.52487183 83.11763 C-24.3536194 85.10530723 -25.1807787 87.09364043 -26.0078125 89.08203125 C-30.07320783 98.83967194 -34.18157842 108.56833138 -38.55859375 118.19140625 C-39.81746544 120.87439341 -39.81746544 120.87439341 -39.6328125 123.89453125 C-38.95702148 124.17651367 -38.28123047 124.45849609 -37.58496094 124.74902344 C-34.51323385 126.03743937 -31.4480653 127.34079171 -28.3828125 128.64453125 C-27.31933594 129.08796875 -26.25585938 129.53140625 -25.16015625 129.98828125 C-24.13535156 130.4265625 -23.11054688 130.86484375 -22.0546875 131.31640625 C-21.11206055 131.7144043 -20.16943359 132.11240234 -19.19824219 132.52246094 C-16.40742798 134.01507379 -14.60434616 135.41878686 -12.6328125 137.89453125 C-12.7333168 144.12579774 -14.34510437 148.62637679 -17.9453125 153.76953125 C-20.5749043 155.52259245 -22.50176843 155.14402579 -25.6328125 154.89453125 C-28.42848493 154.03379534 -31.06475508 152.87347148 -33.734375 151.68359375 C-34.49326019 151.35539642 -35.25214539 151.0271991 -36.0340271 150.6890564 C-38.44652047 149.64268981 -40.85204911 148.58126583 -43.2578125 147.51953125 C-44.88238892 146.81282755 -46.5073852 146.1070882 -48.1328125 145.40234375 C-65.492095 137.85198231 -65.492095 137.85198231 -67.6328125 132.89453125 C-67.23473089 127.37944228 -65.01684856 122.70082308 -62.8203125 117.70703125 C-60.59860941 112.56038734 -58.39442227 107.44885044 -56.5703125 102.14453125 C-54.62618617 96.58742678 -52.08341387 91.34518742 -49.51171875 86.05859375 C-47.98867839 82.80471392 -46.69959509 79.49466036 -45.43359375 76.1328125 C-43.30835008 70.52626724 -40.9983579 65.02237025 -38.609375 59.5234375 C-37.89180612 57.86138035 -37.1743595 56.1992704 -36.45703125 54.53710938 C-35.35156591 51.97753954 -34.24166339 49.42033408 -33.11865234 46.8684082 C-32.01833696 44.36334892 -30.93733241 41.85068329 -29.859375 39.3359375 C-29.51991852 38.57648331 -29.18046204 37.81702911 -28.83071899 37.03456116 C-26.93456727 32.55777161 -26.28143768 29.74760736 -27.6328125 24.89453125 C-29.09576614 17.01083662 -28.20370348 11.9345028 -23.8828125 5.14453125 C-17.25432906 -1.48395219 -8.93346858 -3.75099645 0 0 Z "
     fill="#D5C185"
     transform="translate(232.6328125,28.10546875)"
     id="path2" />
  <path
     d="M0 0 C3.56382139 0.84091004 6.83314013 2.16479366 10.15087891 3.67675781 C11.79984131 4.39858792 13.44966355 5.11845532 15.10009766 5.83691406 C16.52974854 6.46364014 16.52974854 6.46364014 17.98828125 7.10302734 C24.32844707 9.8447956 30.71387987 12.47920059 37.09286499 15.12908936 C39.39775059 16.08698316 41.70182279 17.04680467 44.00561523 18.00732422 C49.99742725 20.50451793 55.98908444 23.00158113 61.99584961 25.46264648 C62.7552182 25.77399033 63.51458679 26.08533417 64.29696655 26.40611267 C65.72864703 26.99246957 67.16083788 27.57758264 68.59365845 28.16114807 C72.87537869 29.91454553 77.08339112 31.78162454 81.27587891 33.73925781 C85.10703293 35.52776902 88.93949657 37.29026081 92.83837891 38.92675781 C93.59119141 39.24386719 94.34400391 39.56097656 95.11962891 39.88769531 C97.6413727 40.64244257 99.7195671 40.74009702 102.33837891 40.55175781 C102.66837891 40.22175781 102.99837891 39.89175781 103.33837891 39.55175781 C111.03498656 38.56469287 116.3607852 39.32990717 122.69384766 43.84863281 C124.52702399 45.74712422 124.96262964 46.97198671 125.33837891 49.55175781 C125.99837891 49.55175781 126.65837891 49.55175781 127.33837891 49.55175781 C129.13934343 55.75346629 128.96666328 62.15642365 127.33837891 68.36425781 C124.39283517 73.05871815 120.27581053 76.083042 115.33837891 78.55175781 C109.07974474 79.14672852 103.82515357 78.86452742 98.33837891 75.55175781 C94.52780695 72.09246103 91.74680762 69.07655834 90.40087891 64.05175781 C90.38025391 63.22675781 90.35962891 62.40175781 90.33837891 61.55175781 C89.68651611 61.45822021 89.03465332 61.36468262 88.36303711 61.26831055 C84.34342065 60.31604851 80.7268283 58.72620485 76.94384766 57.08691406 C76.12752365 56.73783997 75.31119965 56.38876587 74.47013855 56.02911377 C71.82021691 54.89505781 69.17309597 53.75461077 66.52587891 52.61425781 C63.79287699 51.44317649 61.05913254 50.27384144 58.32531738 49.10466003 C56.51674382 48.33110507 54.7083933 47.55702839 52.90026855 46.78242493 C44.91309307 43.36238829 36.89852113 40.01207637 28.87133789 36.68701172 C22.53445197 34.05948022 16.2290198 31.36817104 9.94775391 28.61035156 C7.73928565 27.71440112 5.66429729 27.04463099 3.33837891 26.55175781 C3.16822266 27.08542969 2.99806641 27.61910156 2.82275391 28.16894531 C-4.67782139 51.22922468 -4.67782139 51.22922468 -9.66162109 54.55175781 C-14.76230942 55.52331749 -18.30124379 53.52501539 -22.70849609 51.23144531 C-25.47048199 48.85613744 -26.0378745 47.13299673 -26.66162109 43.55175781 C-25.95366535 40.79631179 -25.19925466 38.51155587 -24.09912109 35.92675781 C-23.8175415 35.22454102 -23.53596191 34.52232422 -23.24584961 33.79882812 C-22.40260921 31.70844826 -21.53484964 29.62975611 -20.66162109 27.55175781 C-19.99646484 25.92367187 -19.99646484 25.92367187 -19.31787109 24.26269531 C-18.51727195 22.31764996 -17.70509873 20.37732073 -16.88037109 18.44238281 C-16.01990293 16.40152883 -15.18931472 14.34795256 -14.38037109 12.28613281 C-13.95755859 11.21878906 -13.53474609 10.15144531 -13.09912109 9.05175781 C-12.72658203 8.09269531 -12.35404297 7.13363281 -11.97021484 6.14550781 C-8.91648039 0.09273267 -6.53122581 -1.0710413 0 0 Z "
     fill="#C7AD73"
     transform="translate(113.66162109375,159.4482421875)"
     id="path3" />
  <path
     d="M0 0 C5.30874688 3.20973658 8.61023879 6.9534995 10.43359375 12.93359375 C10.43359375 13.92359375 10.43359375 14.91359375 10.43359375 15.93359375 C11.57054687 16.28035156 12.7075 16.62710938 13.87890625 16.984375 C21.54541232 19.54237166 28.90029887 22.90801466 36.30859375 26.12109375 C38.67265043 27.14174198 41.03725552 28.16111163 43.4019165 29.18035889 C44.95136887 29.84828421 46.50064656 30.5166149 48.04974365 31.18536377 C53.82942696 33.67913735 59.62488653 36.13315439 65.43359375 38.55859375 C70.95415855 40.8675339 76.42304847 43.2583181 81.85546875 45.76953125 C86.66495189 47.94108576 91.5516926 49.93141789 96.43359375 51.93359375 C96.5521875 51.051875 96.67078125 50.17015625 96.79296875 49.26171875 C97.40905997 46.06104974 98.29583066 43.61721952 99.68359375 40.68359375 C100.12832031 39.74257812 100.57304687 38.8015625 101.03125 37.83203125 C101.72541016 36.39730469 101.72541016 36.39730469 102.43359375 34.93359375 C103.11228516 33.49886719 103.11228516 33.49886719 103.8046875 32.03515625 C107.16966552 25.06555787 107.16966552 25.06555787 109.43359375 23.93359375 C113.98906458 23.67573691 117.31165735 23.93507913 121.43359375 25.93359375 C121.43359375 26.59359375 121.43359375 27.25359375 121.43359375 27.93359375 C122.75359375 28.26359375 124.07359375 28.59359375 125.43359375 28.93359375 C126.72092331 34.66452561 125.94932488 38.36945775 123.57421875 43.58984375 C123.11665192 44.64878845 123.11665192 44.64878845 122.64984131 45.72912598 C121.67678241 47.97119546 120.68080467 50.20217744 119.68359375 52.43359375 C119.02839283 53.93161247 118.37473197 55.43030577 117.72265625 56.9296875 C116.24491711 60.32036271 114.75030001 63.70313542 113.24694824 67.08251953 C112.41411618 68.97792182 111.60786233 70.88329346 110.80371094 72.79101562 C108.76586947 77.46512385 108.76586947 77.46512385 106.43359375 78.93359375 C100.46731002 79.69802385 96.02708541 77.29860498 90.74609375 74.87109375 C88.6816552 73.94772914 86.61650339 73.02595818 84.55078125 72.10546875 C83.41866211 71.59822266 82.28654297 71.09097656 81.12011719 70.56835938 C74.98024347 67.83298154 68.79010353 65.21300321 62.60769653 62.57562256 C58.8619865 60.97704271 55.11840105 59.37350918 51.375 57.76953125 C50.63199142 57.45118317 49.88898285 57.13283508 49.12345886 56.80484009 C41.34413203 53.46971693 33.5747364 50.1117853 25.80859375 46.74609375 C25.18943085 46.4779184 24.57026794 46.20974304 23.93234253 45.93344116 C22.16949815 45.16972428 20.40700875 44.40518816 18.64453125 43.640625 C17.04399902 42.94706909 17.04399902 42.94706909 15.41113281 42.23950195 C12.01151915 40.74847756 8.63663128 39.20719019 5.27392578 37.63476562 C2.59545944 36.61426213 0.25204983 36.58128674 -2.56640625 36.93359375 C-2.89640625 37.26359375 -3.22640625 37.59359375 -3.56640625 37.93359375 C-9.89211611 38.79675104 -14.61020296 38.17262563 -19.8125 34.41015625 C-24.68053749 30.31189752 -27.32690789 26.53190954 -28.40625 20.296875 C-28.80382376 14.43023776 -27.51560328 9.69952615 -23.87890625 5.05859375 C-17.63707306 -1.40830554 -8.37657388 -3.48067682 0 0 Z "
     fill="#C7AD74"
     transform="translate(62.56640625,26.06640625)"
     id="path4" />
  <path
     d="M0 0 C4.27090766 0.92439047 7.99343327 2.32906631 11.98681641 4.06567383 C12.74191498 4.38771286 13.49701355 4.70975189 14.2749939 5.04154968 C15.861699 5.72083492 17.44661061 6.40432334 19.02978516 7.09179688 C21.44268253 8.13769433 23.86255243 9.16597563 26.28369141 10.19262695 C27.83101466 10.85760051 29.37790502 11.52358245 30.92431641 12.19067383 C32.00104111 12.64716057 32.00104111 12.64716057 33.09951782 13.11286926 C37.13486571 14.87990421 40.68146873 16.64793869 43.82275391 19.82739258 C45.02692927 25.93689786 41.54896376 32.58076826 39.07275391 38.01489258 C38.33788496 39.68671127 37.60612948 41.35990187 36.87744141 43.03442383 C36.34521973 44.25572998 36.34521973 44.25572998 35.80224609 45.50170898 C34.45732197 48.69506572 33.32107717 51.92419755 32.19775391 55.20239258 C30.26093474 60.79908744 27.90105076 66.06400997 25.36181641 71.40942383 C23.36012594 75.8548024 21.6797916 80.3887854 19.99829102 84.96240234 C17.17826464 92.62358113 14.03228239 100.12979768 10.69775391 107.58129883 C10.141604 108.84719849 10.141604 108.84719849 9.57421875 110.13867188 C8.83709902 111.81628226 8.08786026 113.48863262 7.32519531 115.15478516 C5.30850283 119.77897174 4.26883073 122.79637399 5.82275391 127.82739258 C6.15275391 128.48739258 6.48275391 129.14739258 6.82275391 129.82739258 C7.36909228 136.75118088 7.53744641 142.83595306 3.82275391 148.82739258 C-0.46429946 153.38368118 -3.74931888 155.62711966 -10.05224609 155.99536133 C-11.08349609 156.00180664 -12.11474609 156.00825195 -13.17724609 156.01489258 C-14.20849609 156.02907227 -15.23974609 156.04325195 -16.30224609 156.05786133 C-19.14269812 155.83016205 -20.76832557 155.29243318 -23.17724609 153.82739258 C-23.17724609 153.16739258 -23.17724609 152.50739258 -23.17724609 151.82739258 C-23.75474609 151.64176758 -24.33224609 151.45614258 -24.92724609 151.26489258 C-29.2580073 148.49801737 -30.83521652 144.17108019 -32.05224609 139.38989258 C-32.29191281 132.55939122 -30.6331417 127.12629546 -26.17724609 121.82739258 C-20.62445106 117.82739258 -20.62445106 117.82739258 -17.17724609 117.82739258 C-17.07927734 117.17899414 -16.98130859 116.5305957 -16.88037109 115.86254883 C-15.94606248 111.82944999 -14.45358203 108.1067126 -12.92724609 104.26489258 C-12.49605469 103.16177734 -12.49605469 103.16177734 -12.05615234 102.03637695 C-8.38893848 92.70820195 -4.46089213 83.48489287 -0.56144714 74.2520752 C1.21265851 70.04829871 2.97880791 65.84119283 4.74487305 61.6340332 C5.67825683 59.41423514 6.61416461 57.19549683 7.55249023 54.9777832 C8.91615683 51.75332186 10.27072317 48.52517022 11.62353516 45.29614258 C12.04532547 44.30449097 12.46711578 43.31283936 12.90168762 42.2911377 C13.2859642 41.36917603 13.67024078 40.44721436 14.06616211 39.49731445 C14.40637894 38.68967651 14.74659576 37.88203857 15.09712219 37.04992676 C16.02966428 34.5833128 16.02966428 34.5833128 15.82275391 30.82739258 C15.0706665 30.50464355 14.3185791 30.18189453 13.54370117 29.84936523 C10.15458901 28.39048111 6.76990879 26.92158623 3.38525391 25.45239258 C2.20125 24.94450195 1.01724609 24.43661133 -0.20263672 23.91333008 C-1.32734375 23.42348633 -2.45205078 22.93364258 -3.61083984 22.42895508 C-4.65296631 21.97858887 -5.69509277 21.52822266 -6.76879883 21.06420898 C-9.17724609 19.82739258 -9.17724609 19.82739258 -10.17724609 17.82739258 C-10.71674789 11.56917171 -9.83243344 7.0351177 -6.17724609 1.82739258 C-3.17724609 -0.17260742 -3.17724609 -0.17260742 0 0 Z "
     fill="#D5C083"
     transform="translate(66.17724609375,81.172607421875)"
     id="path5" />
  <path
     d="M0 0 C3.71330961 0.63505533 7.18670016 2.15142761 10.6875 3.5 C11.84636719 3.9434375 13.00523437 4.386875 14.19921875 4.84375 C17 6 17 6 18 7 C18.87466127 13.18295035 16.0699566 18.09210134 13.5625 23.5625 C12.64185781 25.60745608 11.72261983 27.65304484 10.8046875 29.69921875 C10.33643555 30.73868652 9.86818359 31.7781543 9.38574219 32.84912109 C8.03242303 35.92627701 6.75725972 39.02392392 5.5078125 42.14453125 C5.11650146 43.10866943 4.72519043 44.07280762 4.32202148 45.06616211 C3.57775942 46.90879931 2.84757525 48.75719878 2.13305664 50.61157227 C-0.34047371 56.64289608 -0.34047371 56.64289608 -3.30859375 58.25 C-6.95091786 57.91167091 -9.97484857 56.65385699 -13.25 55.125 C-14.20519531 54.70154297 -14.20519531 54.70154297 -15.1796875 54.26953125 C-19.80851834 52.19148166 -19.80851834 52.19148166 -21 51 C-20.77592342 44.94993231 -19.06550561 40.54100733 -16.45703125 35.12109375 C-14.82871534 31.63309265 -13.40278964 28.08244635 -12 24.5 C-3.84612168 3.84612168 -3.84612168 3.84612168 0 0 Z "
     fill="#EBDF9D"
     transform="translate(222,98)"
     id="path6" />
  <path
     d="M0 0 C5.91118052 0.53988323 10.64045687 2.30370886 16.0390625 4.7109375 C16.88294525 5.0797403 17.726828 5.44854309 18.59628296 5.82852173 C20.37131084 6.60623219 22.14453162 7.38807884 23.91601562 8.17382812 C26.61968362 9.3726427 29.32876134 10.55845684 32.0390625 11.7421875 C33.76856062 12.50185001 35.49773849 13.26224211 37.2265625 14.0234375 C38.43452988 14.55328751 38.43452988 14.55328751 39.66690063 15.09384155 C43.60976165 16.84664922 47.3572022 18.66412541 51 21 C50.38188466 25.55315948 48.53234107 29.28459767 46.4375 33.3125 C46.10814453 33.95767578 45.77878906 34.60285156 45.43945312 35.26757812 C44.63175745 36.84785228 43.81662387 38.42432105 43 40 C37.28847882 39.39820467 32.50973936 37.29600374 27.296875 35.03515625 C26.37787415 34.64178574 25.45887329 34.24841522 24.51202393 33.84312439 C22.57760362 33.0132809 20.64458244 32.18016927 18.71289062 31.34399414 C15.74976372 30.0623978 12.78155663 28.79317977 9.8125 27.52539062 C7.93197798 26.71687504 6.05175882 25.90765461 4.171875 25.09765625 C3.28232117 24.71738785 2.39276733 24.33711945 1.47625732 23.94532776 C0.65490295 23.58833298 -0.16645142 23.2313382 -1.01269531 22.86352539 C-1.73628235 22.55121475 -2.45986938 22.23890411 -3.2053833 21.91712952 C-5 21 -5 21 -7 19 C-7 11.90577793 -3.28279999 6.11383851 0 0 Z "
     fill="#E2D393"
     transform="translate(112,29)"
     id="path7" />
  <path
     d="M0 0 C6.43661836 0.33876939 14.41295261 3.41295261 19 8 C17.66371159 18.40898339 10.80733746 29.92939313 6.8125 39.5625 C6.38461182 40.59729492 5.95672363 41.63208984 5.51586914 42.69824219 C4.36050842 45.47291847 3.18539008 48.2380465 2 51 C1.48824219 52.20527344 0.97648437 53.41054687 0.44921875 54.65234375 C-1 57 -1 57 -2.86328125 57.72753906 C-6.49474251 58.19060016 -9.48777351 56.34386291 -12.6875 54.8125 C-13.72100586 54.35520508 -13.72100586 54.35520508 -14.77539062 53.88867188 C-19.7682104 51.54690685 -19.7682104 51.54690685 -20.78985596 49.13633728 C-21.04094127 46.5837885 -20.5890532 45.22042074 -19.60058594 42.86157227 C-19.2698407 42.05716202 -18.93909546 41.25275177 -18.59832764 40.42396545 C-18.23072327 39.56347092 -17.8631189 38.70297638 -17.484375 37.81640625 C-16.92692596 36.47762672 -16.92692596 36.47762672 -16.35821533 35.11180115 C-15.56979257 33.22424893 -14.77592507 31.33896314 -13.97705078 29.45581055 C-12.75804329 26.58146558 -11.55533188 23.70074105 -10.35546875 20.81835938 C-9.58688662 18.98397704 -8.8173852 17.14997955 -8.046875 15.31640625 C-7.68736755 14.45793594 -7.32786011 13.59946564 -6.9574585 12.71498108 C-2.69888155 2.69888155 -2.69888155 2.69888155 0 0 Z "
     fill="#EEE39E"
     transform="translate(56,108)"
     id="path8" />
  <path
     d="M0 0 C5.96150887 0.27606666 10.90460513 2.38931431 16.328125 4.74609375 C17.63435822 5.30285545 17.63435822 5.30285545 18.96697998 5.87086487 C20.79737892 6.65290018 22.62607164 7.43893983 24.453125 8.22875977 C27.25146582 9.43813349 30.0548544 10.63511488 32.859375 11.83007812 C34.64093147 12.59303478 36.42219207 13.35668275 38.203125 14.12109375 C39.4593869 14.65868568 39.4593869 14.65868568 40.74102783 15.20713806 C41.51903748 15.54411209 42.29704712 15.88108612 43.09863281 16.22827148 C43.78145325 16.52281723 44.46427368 16.81736298 45.16778564 17.12083435 C47 18 47 18 50 20 C49.42697729 26.58976117 47.79679264 34.20320736 43 39 C37.03849113 38.72393334 32.09539487 36.61068569 26.671875 34.25390625 C25.80105286 33.88273178 24.93023071 33.51155731 24.03302002 33.12913513 C22.20262108 32.34709982 20.37392836 31.56106017 18.546875 30.77124023 C15.74853418 29.56186651 12.9451456 28.36488512 10.140625 27.16992188 C8.35906853 26.40696522 6.57780793 25.64331725 4.796875 24.87890625 C3.95936707 24.52051163 3.12185913 24.162117 2.25897217 23.79286194 C1.48096252 23.45588791 0.70295288 23.11891388 -0.09863281 22.77172852 C-0.78145325 22.47718277 -1.46427368 22.18263702 -2.16778564 21.87916565 C-4 21 -4 21 -7 19 C-6.32375784 12.74476004 -4.55009789 4.55009789 0 0 Z "
     fill="#E6D896"
     transform="translate(121,195)"
     id="path9" />
  <path
     d="M0 0 C5.50882811 0.32404871 8.71644116 1.73561764 14 4 C14 11.92 14 19.84 14 28 C8.28087215 26.09362405 3.64062487 24.50377148 -1.5625 21.8125 C-2.59503906 21.28269531 -3.62757812 20.75289062 -4.69140625 20.20703125 C-5.45324219 19.80871094 -6.21507813 19.41039062 -7 19 C-6.40880028 14.87988645 -5.4927322 11.15750231 -4.0625 7.25 C-3.72347656 6.30640625 -3.38445312 5.3628125 -3.03515625 4.390625 C-2 2 -2 2 0 0 Z "
     fill="#CAB177"
     transform="translate(121,195)"
     id="path10" />
  <path
     d="M0 0 C0.33 0 0.66 0 1 0 C1.01981934 1.25135742 1.03963867 2.50271484 1.06005859 3.79199219 C1.13615293 8.436402 1.22486463 13.08050008 1.31738281 17.72460938 C1.35565669 19.73431238 1.39051236 21.74408351 1.421875 23.75390625 C1.46755991 26.6434768 1.52554887 29.53257896 1.5859375 32.421875 C1.59748871 33.31992859 1.60903992 34.21798218 1.62094116 35.14324951 C1.64081085 35.98381897 1.66068054 36.82438843 1.68115234 37.69042969 C1.69447601 38.42767273 1.70779968 39.16491577 1.7215271 39.92449951 C2.0382018 42.28472377 2.83296852 43.93920737 4 46 C-0.22743858 47.40914619 -2.80734737 45.61727375 -6.625 43.8125 C-7.31851563 43.50763672 -8.01203125 43.20277344 -8.7265625 42.88867188 C-13.7775543 40.5358173 -13.7775543 40.5358173 -14.78355408 38.11260986 C-15.16660512 34.37385887 -13.27893907 31.09949319 -11.81640625 27.734375 C-11.48205063 26.94097717 -11.14769501 26.14757935 -10.8032074 25.33013916 C-9.73355683 22.79878293 -8.64829069 20.27446934 -7.5625 17.75 C-6.83424753 16.03429478 -6.10702128 14.31815358 -5.38085938 12.6015625 C-3.59910519 8.39589129 -1.80331787 4.19646767 0 0 Z "
     fill="#D9C687"
     transform="translate(50,119)"
     id="path11" />
  <path
     d="M0 0 C6.51787536 0.52847638 14.3239005 3.3239005 19 8 C18.5423008 11.66159361 16.81565229 15.10531424 15.4375 18.5 C14.90219165 19.82415727 14.36704463 21.14837977 13.83203125 22.47265625 C13.54150879 23.18953613 13.25098633 23.90641602 12.95166016 24.64501953 C11.16322717 29.07068001 9.39593884 33.50481755 7.625 37.9375 C6.92976847 39.67581364 6.23446266 41.41409757 5.5390625 43.15234375 C5.24209473 43.89476318 4.94512695 44.63718262 4.63916016 45.40209961 C4.4282373 45.92940674 4.21731445 46.45671387 4 47 C3.67 47 3.34 47 3 47 C3 31.82 3 16.64 3 1 C2.01 0.67 1.02 0.34 0 0 Z "
     fill="#D6C283"
     transform="translate(56,108)"
     id="path12" />
  <path
     d="M0 0 C4.51340955 0.43398169 7.72895291 1.29158116 12 3 C12 10.92 12 18.84 12 27 C7.63725695 26.12745139 4.28893683 25.02274603 0.25 23.25 C-0.89984375 22.76015625 -2.0496875 22.2703125 -3.234375 21.765625 C-6 20 -6 20 -7.0703125 17.75 C-6.97498201 14.02151867 -5.67587685 11.07232284 -4.125 7.75 C-3.70154297 6.79480469 -3.70154297 6.79480469 -3.26953125 5.8203125 C-1.19148166 1.19148166 -1.19148166 1.19148166 0 0 Z "
     fill="#C7AD73"
     transform="translate(112,29)"
     id="path13" />
  <path
     d="M0 0 C4.83562945 0.3223753 7.13326813 1.6890175 10.5625 5 C12.32098729 8.33187066 12.26262487 10.53346973 11.75 14.25 C9.95976215 17.22046873 7.89995172 19.67502414 4.75 21.25 C-0.40434412 21.75698467 -0.40434412 21.75698467 -3.25 21.25 C-6.1875 18.8125 -6.1875 18.8125 -8.25 16.25 C-8.58 15.92 -8.91 15.59 -9.25 15.25 C-9.69166754 12.19618444 -9.73223087 9.29894358 -9.25 6.25 C-6.8125 3.25 -6.8125 3.25 -4.25 1.25 C-3.25 0.25 -3.25 0.25 0 0 Z "
     fill="#4C257E"
     transform="translate(222.25,207.75)"
     id="path14" />
  <path
     d="M0 0 C2.87029869 1.79393668 4.49131638 2.98263276 6 6 C6.4973766 10.973766 6.54511419 13.06308498 4 17.4375 C0.77272241 20.19413294 -0.87520802 20.9494443 -5.00390625 21.17578125 C-8.18573676 20.89558091 -10.3712555 19.75249634 -13 18 C-15.47092491 14.29361264 -15.55407837 11.29830496 -15 7 C-11.81561737 0.02468566 -7.13650966 -1.05169616 0 0 Z "
     fill="#4F297F"
     transform="translate(229,36)"
     id="path15" />
  <path
     d="M0 0 C4.09644294 0.05868829 5.00044326 0.24284575 8.375 2.875 C10.58556612 6.20663895 10.96277173 9.37348017 10.75 13.31640625 C9.94230342 16.74280659 7.97622198 18.36037849 5.25 20.4375 C2.33225221 21.89637389 0.50271895 21.80573233 -2.75 21.4375 C-5.68064174 20.2652433 -7.74881859 18.89126467 -9.75 16.4375 C-10.95589925 13.01611143 -11.28075484 10.02894111 -10.75 6.4375 C-8.375 3.375 -8.375 3.375 -5.75 1.4375 C-4.10710804 -0.20539196 -2.26039721 0.11034483 0 0 Z "
     fill="#4A227C"
     transform="translate(53.75,33.5625)"
     id="path16" />
  <path
     d="M0 0 C3.6196875 1.423125 3.6196875 1.423125 7.3125 2.875 C8.06829346 3.17003418 8.82408691 3.46506836 9.6027832 3.76904297 C12.64360224 4.97527117 15.26837523 6.17891682 18 8 C17.42697729 14.58976117 15.79679264 22.20320736 11 27 C6.45817773 26.65722096 3.28495457 25.71398183 -1 24 C-0.67 16.08 -0.34 8.16 0 0 Z "
     fill="#B4915D"
     transform="translate(153,207)"
     id="path17" />
  <path
     d="M0 0 C3.35211493 2.18616191 4.72686604 3.18059812 6 7 C6.38887761 11.19987818 6.45908323 13.29607238 4.125 16.875 C1.28058592 19.71941408 -0.3887432 20.20354172 -4.3125 20.375 C-8.18426111 20.35629584 -8.81700789 20.14868109 -12 17.5625 C-12.66 16.716875 -13.32 15.87125 -14 15 C-14.33 14.67 -14.66 14.34 -15 14 C-15.4781408 9.29828209 -15.72931068 6.32594144 -12.6875 2.5625 C-8.40821869 -1.51774497 -5.59684466 -1.25446518 0 0 Z "
     fill="#49217C"
     transform="translate(58,208)"
     id="path18" />
  <path
     d="M0 0 C3.7063084 0.80532133 7.15263048 2.13830334 10.6875 3.5 C11.84636719 3.9434375 13.00523437 4.386875 14.19921875 4.84375 C17 6 17 6 18 7 C18.30947336 11.38087192 17.7123303 14.38792205 15.91796875 18.37109375 C15.48033203 19.35787109 15.04269531 20.34464844 14.59179688 21.36132812 C14.12837891 22.37646484 13.66496094 23.39160156 13.1875 24.4375 C12.73568359 25.44876953 12.28386719 26.46003906 11.81835938 27.50195312 C10.94460978 29.45736645 10.06700959 31.411065 9.18505859 33.36279297 C7.74896564 36.55864713 6.36588152 39.77361541 5 43 C4.67 43 4.34 43 4 43 C4 30.13 4 17.26 4 4 C3.34 4 2.68 4 2 4 C2 3.01 2 2.02 2 1 C1.34 0.67 0.68 0.34 0 0 Z "
     fill="#CEB77D"
     transform="translate(222,98)"
     id="path19" />
  <path
     d="M0 0 C2.90497155 2.90497155 2.3544517 5.95399306 2.4140625 9.8515625 C2.43342865 10.62559418 2.4527948 11.39962585 2.4727478 12.19711304 C2.5325983 14.67296275 2.57895011 17.14885883 2.625 19.625 C2.66317482 21.30210377 2.70222625 22.97918784 2.7421875 24.65625 C2.83830409 28.77067353 2.92231439 32.88518886 3 37 C1.56257623 36.53896089 0.1266667 36.07319901 -1.30859375 35.60546875 C-2.10837646 35.34660889 -2.90815918 35.08774902 -3.73217773 34.82104492 C-6.38638591 33.86011241 -8.66580356 32.58122985 -11 31 C-10.6553092 24.91046249 -9.04601506 20.4440488 -6.41015625 14.96484375 C-4.07750655 10.0604639 -2.06024093 5.02348107 0 0 Z "
     fill="#CDB57B"
     transform="translate(212,118)"
     id="path20" />
  <path
     d="M0 0 C1.93912584 0.78767592 3.87624766 1.5802867 5.8125 2.375 C6.89144531 2.81585938 7.97039062 3.25671875 9.08203125 3.7109375 C12 5 12 5 15 7 C14.38188466 11.55315948 12.53234107 15.28459767 10.4375 19.3125 C9.9434668 20.28026367 9.9434668 20.28026367 9.43945312 21.26757812 C8.63175745 22.84785228 7.81662387 24.42432105 7 26 C1.25 25.25 1.25 25.25 -1 23 C-1.13525391 20.66162109 -1.13525391 20.66162109 -0.9765625 17.7734375 C-0.925 16.7421875 -0.8734375 15.7109375 -0.8203125 14.6484375 C-0.75585938 13.56820312 -0.69140625 12.48796875 -0.625 11.375 C-0.56828125 10.28703125 -0.5115625 9.1990625 -0.453125 8.078125 C-0.3113698 5.38477613 -0.15993358 2.6923207 0 0 Z "
     fill="#B79662"
     transform="translate(148,43)"
     id="path21" />
  <path
     d="M0 0 C1.29409592 0.45142881 2.58521059 0.91141021 3.875 1.375 C4.95394531 1.75785156 4.95394531 1.75785156 6.0546875 2.1484375 C8 3 8 3 10 5 C9.54213962 8.91928489 7.61091618 12.61630868 6.125 16.25 C5.58268437 17.58958121 5.04101209 18.92942306 4.5 20.26953125 C4.24089844 20.91100098 3.98179688 21.5524707 3.71484375 22.21337891 C2.4180584 25.4544565 1.20363882 28.72342766 0 32 C-0.33 32 -0.66 32 -1 32 C-1.02907584 27.6041806 -1.0468244 23.20838601 -1.0625 18.8125 C-1.07087891 17.56662109 -1.07925781 16.32074219 -1.08789062 15.03710938 C-1.09111328 13.83505859 -1.09433594 12.63300781 -1.09765625 11.39453125 C-1.10289307 10.28956299 -1.10812988 9.18459473 -1.11352539 8.04614258 C-1.00901923 5.24200621 -0.64097959 2.72582671 0 0 Z "
     fill="#C1A56C"
     transform="translate(65,111)"
     id="path22" />
  <path
     d="M0 0 C4.95 1.98 4.95 1.98 10 4 C10.63200192 10.0237683 8.39333292 14.50617209 6 19.875 C5.6184375 20.75414063 5.236875 21.63328125 4.84375 22.5390625 C3.9054545 24.69714215 2.95738571 26.85033806 2 29 C1.67 29 1.34 29 1 29 C0.83008756 25.66682397 0.66466921 22.33343885 0.5 19 C0.45230469 18.06542969 0.40460938 17.13085938 0.35546875 16.16796875 C0.0912539 10.77043673 -0.05098037 5.40391896 0 0 Z "
     fill="#C3A76E"
     transform="translate(230,101)"
     id="path23" />
  <path
     d="M0 0 C1.125 3.75 1.125 3.75 0 6 C-0.08510205 7.9593604 -0.10717656 9.92162794 -0.09765625 11.8828125 C-0.09443359 13.04941406 -0.09121094 14.21601563 -0.08789062 15.41796875 C-0.07951172 16.64128906 -0.07113281 17.86460937 -0.0625 19.125 C-0.05798828 20.35605469 -0.05347656 21.58710938 -0.04882812 22.85546875 C-0.0370133 25.90369392 -0.02054028 28.95182314 0 32 C-1.48643845 31.43545368 -2.96406016 30.84765111 -4.4375 30.25 C-5.26121094 29.92515625 -6.08492187 29.6003125 -6.93359375 29.265625 C-9 28 -9 28 -9.91577148 26.21191406 C-10.03165091 23.16881953 -9.11333101 21.15192876 -7.91015625 18.359375 C-7.45576172 17.28945312 -7.00136719 16.21953125 -6.53320312 15.1171875 C-6.04787109 14.00601563 -5.56253906 12.89484375 -5.0625 11.75 C-4.34030273 10.06003906 -4.34030273 10.06003906 -3.60351562 8.3359375 C-2.4124158 5.55277356 -1.210947 2.77457241 0 0 Z "
     fill="#BB9D67"
     transform="translate(45,131)"
     id="path24" />
  <path
     d="M0 0 C0.5625 1.9375 0.5625 1.9375 1 4 C0.67 4.33 0.34 4.66 0 5 C-0.12232644 6.47250645 -0.1777456 7.95065711 -0.20532227 9.42797852 C-0.22526749 10.36887833 -0.24521271 11.30977814 -0.26576233 12.27919006 C-0.28247482 13.30209641 -0.29918732 14.32500275 -0.31640625 15.37890625 C-0.33718735 16.42070541 -0.35796844 17.46250458 -0.37937927 18.53587341 C-0.44499057 21.87801247 -0.50381331 25.22023285 -0.5625 28.5625 C-0.60567422 30.82227418 -0.64928814 33.08204001 -0.69335938 35.34179688 C-0.80068367 40.89444421 -0.90242812 46.44717321 -1 52 C-1.99 51.34 -2.98 50.68 -4 50 C-4.40084608 47.15449008 -4.60941823 44.51899261 -4.6875 41.66015625 C-4.71730957 40.8234288 -4.74711914 39.98670135 -4.77783203 39.12461853 C-4.83566574 37.34690342 -4.88556901 35.56891557 -4.92822266 33.79077148 C-4.99894317 31.10267021 -5.11316228 28.418839 -5.23046875 25.73242188 C-5.55069769 16.109744 -5.39781989 8.39433285 0 0 Z "
     fill="#DCCC8E"
     transform="translate(218,104)"
     id="path25" />
  <path
     d="M0 0 C1.98 0.66 3.96 1.32 6 2 C6 9.59 6 17.18 6 25 C3.69 24.67 1.38 24.34 -1 24 C-0.67 16.08 -0.34 8.16 0 0 Z "
     fill="#CCB378"
     transform="translate(153,207)"
     id="path26" />
  <path
     d="M0 0 C0.99 0 1.98 0 3 0 C2.67 7.59 2.34 15.18 2 23 C-4 21 -4 21 -7 19 C-6.32375784 12.74476004 -4.55009789 4.55009789 0 0 Z "
     fill="#AD8856"
     transform="translate(121,195)"
     id="path27" />
  <path
     d="M0 0 C0.99 0.33 1.98 0.66 3 1 C2.67 8.26 2.34 15.52 2 23 C-5 21 -5 21 -7 19 C-7 11.90577793 -3.28279999 6.11383851 0 0 Z "
     fill="#AC8757"
     transform="translate(112,29)"
     id="path28" />
  <path
     d="M0 0 C0.33 0 0.66 0 1 0 C1 9.24 1 18.48 1 28 C-7 25 -7 25 -8 24 C-7.77034652 17.79935614 -5.94867306 13.17174056 -3.25390625 7.61328125 C-2.05315974 5.11079086 -1.00232252 2.5873907 0 0 Z "
     fill="#BA9B68"
     transform="translate(209,125)"
     id="path29" />
  <path
     d="M0 0 C0.33 0 0.66 0 1 0 C1 12.54 1 25.08 1 38 C0.01 37.67 -0.98 37.34 -2 37 C-3.99862267 33.00275465 -3.22898995 27.95622581 -3.25 23.5625 C-3.270625 22.51900391 -3.29125 21.47550781 -3.3125 20.40039062 C-3.34851417 13.14803658 -2.26910814 6.88518598 0 0 Z M-2 33 C-1 35 -1 35 -1 35 Z "
     fill="#CCB478"
     transform="translate(47,126)"
     id="path30" />
  <path
     d="M0 0 C0.33 0 0.66 0 1 0 C0.90788766 7.08439109 0.80060338 14.16843426 0.68261719 21.25244141 C0.64426353 23.66384628 0.6094221 26.07530962 0.578125 28.48681641 C0.53261297 31.94715313 0.47459596 35.40708508 0.4140625 38.8671875 C0.40251129 39.95055389 0.39096008 41.03392029 0.37905884 42.15011597 C0.35918915 43.1510025 0.33931946 44.15188904 0.31884766 45.18310547 C0.30552399 46.06690887 0.29220032 46.95071228 0.2784729 47.86129761 C0 50 0 50 -2 52 C-2.05081435 45.55879087 -2.08578161 39.11763368 -2.10986328 32.67626953 C-2.11990526 30.48614571 -2.13354147 28.29603525 -2.15087891 26.10595703 C-2.17520627 22.95341694 -2.18650131 19.80105452 -2.1953125 16.6484375 C-2.20563507 15.67321136 -2.21595764 14.69798523 -2.22659302 13.69320679 C-2.22740948 8.71808837 -1.97323633 4.66339243 0 0 Z "
     fill="#E6D897"
     transform="translate(53,111)"
     id="path31" />
  <path
     d="M0 0 C2.475 0.495 2.475 0.495 5 1 C6.42106257 6.68425027 6.30645408 12.25587496 5.4375 18 C4.9511394 21.4245116 5.27689607 24.41468336 5.80078125 27.84375 C6.17485731 31.89257326 5.84941093 36.02623406 5 40 C4.34 40.66 3.68 41.32 3 42 C3 28.47 3 14.94 3 1 C2.01 0.67 1.02 0.34 0 0 Z "
     fill="#DDCC8C"
     transform="translate(56,108)"
     id="path32" />
  <path
     d="M0 0 C1.875 0.3125 1.875 0.3125 4 1 C9.1052278 8.6578417 7.02264559 21.35240292 6.6875 30.25 C6.65293701 31.27448242 6.61837402 32.29896484 6.58276367 33.35449219 C6.53869385 34.31516602 6.49462402 35.27583984 6.44921875 36.265625 C6.41143311 37.12961914 6.37364746 37.99361328 6.3347168 38.88378906 C6 41 6 41 4 43 C4 30.13 4 17.26 4 4 C3.34 4 2.68 4 2 4 C2 3.01 2 2.02 2 1 C1.34 0.67 0.68 0.34 0 0 Z "
     fill="#D7C589"
     transform="translate(222,98)"
     id="path33" />
  <path
     d="M0 0 C1.98 0.66 3.96 1.32 6 2 C6.37649141 7.09832122 5.10818776 10.82625254 3 15.375 C2.71382812 16.01566406 2.42765625 16.65632813 2.1328125 17.31640625 C1.4317683 18.88207163 0.71724882 20.44169156 0 22 C-1.14028262 18.57915214 -0.70707294 17.45734286 0 14 C0.06701506 11.56333235 0.08528021 9.12498258 0.0625 6.6875 C0.04896484 4.80611328 0.04896484 4.80611328 0.03515625 2.88671875 C0.02355469 1.93410156 0.01195312 0.98148437 0 0 Z "
     fill="#B2905E"
     transform="translate(234,103)"
     id="path34" />
  <path
     d="M0 0 C0.33 0 0.66 0 1 0 C1 5.94 1 11.88 1 18 C-4 16 -4 16 -4.96484375 14.265625 C-5.01535726 11.0103096 -3.88116224 8.70894942 -2.5625 5.75 C-2.08941406 4.67234375 -1.61632813 3.5946875 -1.12890625 2.484375 C-0.75636719 1.66453125 -0.38382813 0.8446875 0 0 Z "
     fill="#AE8A56"
     transform="translate(40,143)"
     id="path35" />
  <path
     d="M0 0 C4 1 4 1 6 3 C5.52999076 6.37212979 4.1122887 9.56670157 2.9375 12.75 C2.57527344 13.73484375 2.21304688 14.7196875 1.83984375 15.734375 C1.56269531 16.48203125 1.28554687 17.2296875 1 18 C0.67 18 0.34 18 0 18 C0 12.06 0 6.12 0 0 Z "
     fill="#B18E5A"
     transform="translate(69,113)"
     id="path36" />
  <path
     d="M0 0 C0.33 0 0.66 0 1 0 C1.33 5.94 1.66 11.88 2 18 C0.02 17.01 -1.96 16.02 -4 15 C-3.50341703 9.33895411 -2.45489316 5.12325529 0 0 Z "
     fill="#AC895C"
     transform="translate(205,134)"
     id="path37" />
  <path
     d="M0 0 C0.33 0 0.66 0 1 0 C1.01981934 1.25135742 1.03963867 2.50271484 1.06005859 3.79199219 C1.13615293 8.436402 1.22486463 13.08050008 1.31738281 17.72460938 C1.35565669 19.73431238 1.39051236 21.74408351 1.421875 23.75390625 C1.46755991 26.6434768 1.52554887 29.53257896 1.5859375 32.421875 C1.59748871 33.31992859 1.60903992 34.21798218 1.62094116 35.14324951 C1.64081085 35.98381897 1.66068054 36.82438843 1.68115234 37.69042969 C1.69447601 38.42767273 1.70779968 39.16491577 1.7215271 39.92449951 C2.0382018 42.28472377 2.83296852 43.93920737 4 46 C2.515 46.495 2.515 46.495 1 47 C0 46 0 46 -0.12025452 44.13340759 C-0.11803391 43.31844315 -0.11581329 42.5034787 -0.11352539 41.66381836 C-0.11344986 40.7429393 -0.11337433 39.82206024 -0.11329651 38.87327576 C-0.10813522 37.87224319 -0.10297394 36.87121063 -0.09765625 35.83984375 C-0.0962413 34.82024063 -0.09482635 33.80063751 -0.09336853 32.75013733 C-0.08775097 29.47922893 -0.0751955 26.20838787 -0.0625 22.9375 C-0.05748726 20.72591244 -0.05292396 18.51432382 -0.04882812 16.30273438 C-0.03777584 10.86846643 -0.02102063 5.43423803 0 0 Z "
     fill="#DECD90"
     transform="translate(50,119)"
     id="path38" />
  <path
     d="M0 0 C1.98 0.99 1.98 0.99 4 2 C3.67 2.66 3.34 3.32 3 4 C2.84876169 5.5195764 2.75118307 7.04472502 2.68359375 8.5703125 C2.64169922 9.46621094 2.59980469 10.36210938 2.55664062 11.28515625 C2.49766602 12.69087891 2.49766602 12.69087891 2.4375 14.125 C2.39431641 15.06988281 2.35113281 16.01476562 2.30664062 16.98828125 C2.20040928 19.32537092 2.09836824 21.6625683 2 24 C1.34 24 0.68 24 0 24 C0 16.08 0 8.16 0 0 Z "
     fill="#DAC789"
     transform="translate(124,33)"
     id="path39" />
  <path
     d="M0 0 C1.98 0.99 1.98 0.99 4 2 C3.67 12.89 3.34 23.78 3 35 C2.67 35 2.34 35 2 35 C1.97494385 34.11739502 1.9498877 33.23479004 1.92407227 32.32543945 C1.8286647 29.03593385 1.72944807 25.74658818 1.62768555 22.45727539 C1.58450196 21.03642225 1.54281592 19.61552274 1.50268555 18.19458008 C1.44457905 16.1465053 1.38100362 14.09866035 1.31640625 12.05078125 C1.27974854 10.82012939 1.24309082 9.58947754 1.20532227 8.3215332 C1.02730577 5.44173016 0.65390895 2.80412912 0 0 Z "
     fill="#CEB77B"
     transform="translate(61,109)"
     id="path40" />
  <path
     d="M0 0 C4 2 4 2 4.9375 3.75 C5.02882333 7.03763977 3.59648343 9.19018916 2 12 C1.67 12 1.34 12 1 12 C0.67 8.04 0.34 4.08 0 0 Z "
     fill="#A27B50"
     transform="translate(70,113)"
     id="path41" />
  <path
     d="M0 0 C0.33 0 0.66 0 1 0 C1 3.3 1 6.6 1 10 C0.01 9.67 -0.98 9.34 -2 9 C-1.125 1.125 -1.125 1.125 0 0 Z "
     fill="#A07851"
     transform="translate(203,140)"
     id="path42" />
  <path
     d="M0 0 C0.33 0 0.66 0 1 0 C1 3.3 1 6.6 1 10 C0.01 9.34 -0.98 8.68 -2 8 C-1.47731534 5.23723823 -0.89130413 2.6739124 0 0 Z "
     fill="#986F4D"
     transform="translate(37,150)"
     id="path43" />
  <path
     d="M0 0 C1.32 0.33 2.64 0.66 4 1 C4.125 3.875 4.125 3.875 4 7 C3.34 7.66 2.68 8.32 2 9 C2 6.69 2 4.38 2 2 C1.34 2 0.68 2 0 2 C0 1.34 0 0.68 0 0 Z "
     fill="#A17A53"
     transform="translate(236,104)"
     id="path44" />
</svg>
